<svg width="172" height="50" viewBox="0 0 172 50" fill="none" xmlns="http://www.w3.org/2000/svg">
<path d="M170.16 44.2337C170.16 46.8982 167.982 49.0566 165.287 49.0566H5.82917C3.13614 49.0566 0.950195 46.8982 0.950195 44.2337V5.77256C0.950195 3.10926 3.13614 0.943359 5.82917 0.943359H165.286C167.982 0.943359 170.159 3.10926 170.159 5.77256L170.16 44.2337Z" fill="white"/>
<path d="M164.774 1.00156C167.708 1.00156 170.096 3.35625 170.096 6.25V43.75C170.096 46.6438 167.708 48.9984 164.774 48.9984H6.33745C3.40321 48.9984 1.01558 46.6438 1.01558 43.75V6.25C1.01558 3.35625 3.40321 1.00156 6.33745 1.00156H164.774ZM164.774 3.8147e-06H6.33745C2.85344 3.8147e-06 0 2.81407 0 6.25V43.75C0 47.1859 2.85344 50 6.33745 50H164.774C168.258 50 171.111 47.1859 171.111 43.75V6.25C171.111 2.81407 168.258 3.8147e-06 164.774 3.8147e-06Z" fill="#A6A6A6"/>
<path d="M38.1872 24.7302C38.1504 20.7015 41.5321 18.7415 41.6867 18.6502C39.7716 15.8965 36.8031 15.5202 35.7599 15.4902C33.2668 15.2315 30.8484 16.9615 29.5784 16.9615C28.283 16.9615 26.3273 15.5152 24.2195 15.5577C21.507 15.599 18.9695 17.1477 17.5778 19.5527C14.7057 24.4565 16.8477 31.6627 19.5995 35.6265C20.9759 37.5677 22.5844 39.7352 24.6897 39.659C26.7494 39.5752 27.5187 38.364 30.0043 38.364C32.467 38.364 33.1895 39.659 35.3366 39.6102C37.5471 39.5752 38.9388 37.6602 40.2671 35.7015C41.8578 33.4765 42.4967 31.2852 42.522 31.1727C42.47 31.1552 38.229 29.559 38.1872 24.7302Z" fill="black"/>
<path d="M34.1312 12.8827C35.239 11.5165 35.997 9.65773 35.7866 7.77148C34.1832 7.84148 32.178 8.86523 31.0233 10.2015C30.0017 11.379 29.0891 13.309 29.3249 15.124C31.126 15.2565 32.9753 14.2277 34.1312 12.8827Z" fill="black"/>
<path d="M62.1709 12.5109C62.1709 13.9821 61.7234 15.0896 60.8299 15.8334C60.0022 16.5196 58.826 16.8634 57.3024 16.8634C56.547 16.8634 55.9006 16.8309 55.3594 16.7659V8.72713C56.0654 8.61463 56.8259 8.55713 57.6472 8.55713C59.0985 8.55713 60.1923 8.86838 60.93 9.49088C61.7564 10.1946 62.1709 11.2009 62.1709 12.5109ZM60.7703 12.5471C60.7703 11.5934 60.5143 10.8621 60.0022 10.3521C59.4901 9.84338 58.7423 9.58838 57.7575 9.58838C57.3392 9.58838 56.983 9.61588 56.6877 9.67338V15.7846C56.8512 15.8096 57.1503 15.8209 57.5851 15.8209C58.6016 15.8209 59.3862 15.5421 59.9388 14.9846C60.4914 14.4271 60.7703 13.6146 60.7703 12.5471Z" fill="black"/>
<path d="M69.5971 13.7963C69.5971 14.7026 69.3347 15.4451 68.81 16.0276C68.2599 16.6263 67.5311 16.9251 66.6211 16.9251C65.7439 16.9251 65.0456 16.6388 64.5246 16.0638C64.005 15.4901 63.7451 14.7663 63.7451 13.8938C63.7451 12.9813 64.0126 12.2326 64.55 11.6513C65.0874 11.0701 65.8099 10.7788 66.7199 10.7788C67.597 10.7788 68.3017 11.0651 68.8354 11.6388C69.3424 12.1963 69.5971 12.9163 69.5971 13.7963ZM68.2194 13.8388C68.2194 13.2951 68.1002 12.8288 67.8632 12.4401C67.5843 11.9701 67.1876 11.7351 66.6718 11.7351C66.1381 11.7351 65.7325 11.9701 65.4537 12.4401C65.2154 12.8288 65.0975 13.3026 65.0975 13.8626C65.0975 14.4063 65.2167 14.8726 65.4537 15.2613C65.7414 15.7313 66.1419 15.9663 66.6591 15.9663C67.1661 15.9663 67.5641 15.7276 67.8505 15.2488C68.0964 14.8526 68.2194 14.3826 68.2194 13.8388Z" fill="black"/>
<path d="M79.5544 10.8984L77.6849 16.7909H76.4681L75.6936 14.2322C75.4972 13.5934 75.3375 12.9584 75.2133 12.3284H75.1892C75.0738 12.9759 74.9141 13.6097 74.7088 14.2322L73.8862 16.7909H72.6555L70.8975 10.8984H72.2625L72.9381 13.6997C73.1016 14.3622 73.236 14.9934 73.3437 15.5909H73.3678C73.4667 15.0984 73.6302 14.4709 73.8608 13.7122L74.7088 10.8997H75.7912L76.6037 13.6522C76.8002 14.3234 76.9599 14.9697 77.0828 15.5922H77.1196C77.2096 14.9859 77.3452 14.3397 77.5252 13.6522L78.2502 10.8997H79.5544V10.8984Z" fill="black"/>
<path d="M86.4404 16.7912H85.1121V13.4162C85.1121 12.3762 84.7115 11.8562 83.9079 11.8562C83.5137 11.8562 83.1956 11.9987 82.9485 12.2849C82.7038 12.5712 82.5796 12.9087 82.5796 13.2949V16.7899H81.2513V12.5824C81.2513 12.0649 81.2348 11.5037 81.2031 10.8962H82.3705L82.4326 11.8174H82.4693C82.624 11.5312 82.8547 11.2949 83.1576 11.1062C83.5176 10.8862 83.9206 10.7749 84.3617 10.7749C84.9194 10.7749 85.3833 10.9524 85.7521 11.3087C86.211 11.7449 86.4404 12.3962 86.4404 13.2612V16.7912V16.7912Z" fill="black"/>
<path d="M90.1034 16.7911H88.7764V8.19482H90.1034V16.7911Z" fill="black"/>
<path d="M97.9243 13.7963C97.9243 14.7026 97.6619 15.4451 97.1372 16.0276C96.5871 16.6263 95.857 16.9251 94.9482 16.9251C94.0698 16.9251 93.3714 16.6388 92.8518 16.0638C92.3321 15.4901 92.0723 14.7663 92.0723 13.8938C92.0723 12.9813 92.3397 12.2326 92.8771 11.6513C93.4145 11.0701 94.137 10.7788 95.0458 10.7788C95.9242 10.7788 96.6276 11.0651 97.1625 11.6388C97.6695 12.1963 97.9243 12.9163 97.9243 13.7963ZM96.5452 13.8388C96.5452 13.2951 96.4261 12.8288 96.1891 12.4401C95.9115 11.9701 95.5135 11.7351 94.9989 11.7351C94.464 11.7351 94.0584 11.9701 93.7808 12.4401C93.5426 12.8288 93.4247 13.3026 93.4247 13.8626C93.4247 14.4063 93.5438 14.8726 93.7808 15.2613C94.0686 15.7313 94.4691 15.9663 94.9862 15.9663C95.4932 15.9663 95.8899 15.7276 96.1764 15.2488C96.4236 14.8526 96.5452 14.3826 96.5452 13.8388Z" fill="black"/>
<path d="M104.352 16.7913H103.16L103.061 16.1126H103.024C102.616 16.6538 102.034 16.9251 101.279 16.9251C100.715 16.9251 100.258 16.7463 99.915 16.3913C99.6032 16.0688 99.4473 15.6676 99.4473 15.1913C99.4473 14.4713 99.7515 13.9226 100.364 13.5426C100.975 13.1626 101.834 12.9763 102.94 12.9851V12.8751C102.94 12.0988 102.527 11.7113 101.7 11.7113C101.11 11.7113 100.591 11.8576 100.142 12.1476L99.8719 11.2876C100.427 10.9488 101.113 10.7788 101.921 10.7788C103.483 10.7788 104.266 11.5913 104.266 13.2163V15.3863C104.266 15.9751 104.295 16.4438 104.352 16.7913ZM102.973 14.7663V13.8576C101.508 13.8326 100.776 14.2288 100.776 15.0451C100.776 15.3526 100.859 15.5826 101.03 15.7363C101.201 15.8901 101.419 15.9663 101.679 15.9663C101.971 15.9663 102.243 15.8751 102.492 15.6938C102.741 15.5113 102.895 15.2801 102.952 14.9963C102.966 14.9326 102.973 14.8551 102.973 14.7663Z" fill="black"/>
<path d="M111.901 16.7911H110.722L110.66 15.8448H110.623C110.247 16.5648 109.606 16.9248 108.704 16.9248C107.984 16.9248 107.385 16.6461 106.91 16.0886C106.434 15.5311 106.197 14.8073 106.197 13.9186C106.197 12.9648 106.455 12.1923 106.972 11.6023C107.472 11.0523 108.086 10.7773 108.816 10.7773C109.618 10.7773 110.18 11.0436 110.499 11.5773H110.524V8.19482H111.854V15.2036C111.854 15.7773 111.869 16.3061 111.901 16.7911ZM110.524 14.3061V13.3236C110.524 13.1536 110.512 13.0161 110.488 12.9111C110.413 12.5961 110.252 12.3311 110.007 12.1173C109.76 11.9036 109.462 11.7961 109.119 11.7961C108.623 11.7961 108.235 11.9898 107.95 12.3786C107.668 12.7673 107.524 13.2636 107.524 13.8698C107.524 14.4523 107.66 14.9248 107.932 15.2886C108.22 15.6761 108.608 15.8698 109.093 15.8698C109.529 15.8698 109.878 15.7086 110.143 15.3848C110.399 15.0861 110.524 14.7261 110.524 14.3061Z" fill="black"/>
<path d="M123.261 13.7963C123.261 14.7026 122.999 15.4451 122.474 16.0276C121.924 16.6263 121.196 16.9251 120.285 16.9251C119.409 16.9251 118.711 16.6388 118.189 16.0638C117.669 15.4901 117.409 14.7663 117.409 13.8938C117.409 12.9813 117.677 12.2326 118.214 11.6513C118.751 11.0701 119.474 10.7788 120.385 10.7788C121.261 10.7788 121.967 11.0651 122.499 11.6388C123.006 12.1963 123.261 12.9163 123.261 13.7963ZM121.885 13.8388C121.885 13.2951 121.766 12.8288 121.529 12.4401C121.248 11.9701 120.853 11.7351 120.336 11.7351C119.803 11.7351 119.398 11.9701 119.118 12.4401C118.879 12.8288 118.762 13.3026 118.762 13.8626C118.762 14.4063 118.881 14.8726 119.118 15.2613C119.405 15.7313 119.806 15.9663 120.323 15.9663C120.83 15.9663 121.229 15.7276 121.516 15.2488C121.76 14.8526 121.885 14.3826 121.885 13.8388Z" fill="black"/>
<path d="M130.404 16.7912H129.077V13.4162C129.077 12.3762 128.676 11.8562 127.872 11.8562C127.477 11.8562 127.159 11.9987 126.913 12.2849C126.667 12.5712 126.544 12.9087 126.544 13.2949V16.7899H125.215V12.5824C125.215 12.0649 125.2 11.5037 125.168 10.8962H126.334L126.396 11.8174H126.433C126.589 11.5312 126.82 11.2949 127.121 11.1062C127.482 10.8862 127.884 10.7749 128.327 10.7749C128.883 10.7749 129.347 10.9524 129.716 11.3087C130.176 11.7449 130.404 12.3962 130.404 13.2612V16.7912V16.7912Z" fill="black"/>
<path d="M139.343 11.8799H137.88V14.7424C137.88 15.4699 138.14 15.8337 138.655 15.8337C138.893 15.8337 139.091 15.8137 139.247 15.7724L139.281 16.7662C139.019 16.8637 138.674 16.9124 138.249 16.9124C137.724 16.9124 137.316 16.7549 137.021 16.4399C136.724 16.1249 136.577 15.5949 136.577 14.8512V11.8799H135.704V10.8987H136.577V9.81865L137.879 9.43115V10.8974H139.342V11.8799H139.343Z" fill="black"/>
<path d="M146.376 16.7911H145.046V13.4411C145.046 12.3848 144.646 11.8561 143.843 11.8561C143.227 11.8561 142.806 12.1623 142.576 12.7748C142.536 12.9036 142.514 13.0611 142.514 13.2461V16.7898H141.187V8.19482H142.514V11.7461H142.539C142.957 11.0998 143.557 10.7773 144.334 10.7773C144.884 10.7773 145.339 10.9548 145.7 11.3111C146.15 11.7548 146.376 12.4148 146.376 13.2873V16.7911V16.7911Z" fill="black"/>
<path d="M153.629 13.5658C153.629 13.8008 153.612 13.9983 153.58 14.1596H149.596C149.614 14.7421 149.804 15.1858 150.173 15.4933C150.51 15.7683 150.945 15.9058 151.477 15.9058C152.067 15.9058 152.604 15.8133 153.088 15.6271L153.296 16.5371C152.73 16.7796 152.063 16.9008 151.291 16.9008C150.366 16.9008 149.637 16.6321 149.11 16.0946C148.58 15.5571 148.317 14.8358 148.317 13.9308C148.317 13.0421 148.562 12.3021 149.055 11.7121C149.57 11.0821 150.266 10.7671 151.144 10.7671C152.003 10.7671 152.656 11.0821 153.097 11.7121C153.453 12.2121 153.629 12.8308 153.629 13.5658ZM152.362 13.2271C152.372 12.8383 152.285 12.5033 152.105 12.2208C151.874 11.8571 151.523 11.6746 151.048 11.6746C150.614 11.6746 150.26 11.8521 149.99 12.2083C149.77 12.4921 149.639 12.8308 149.596 13.2271H152.362Z" fill="black"/>
<path d="M67.9941 39.3801H65.1157L63.5389 34.4939H58.0583L56.5563 39.3801H53.7539L59.1838 22.7451H62.5376L67.9941 39.3801ZM63.0636 32.4439L61.6377 28.1001C61.4869 27.6564 61.2042 26.6114 60.7872 24.9664H60.7365C60.5705 25.6739 60.303 26.7189 59.9354 28.1001L58.5349 32.4439H63.0636V32.4439Z" fill="black"/>
<path d="M81.958 33.2354C81.958 35.2754 81.399 36.8879 80.2811 38.0717C79.2798 39.1254 78.0364 39.6517 76.5521 39.6517C74.95 39.6517 73.7992 39.0842 73.0982 37.9492H73.0475V44.2679H70.3452V31.3342C70.3452 30.0517 70.311 28.7354 70.2451 27.3854H72.6217L72.7725 29.2867H72.8232C73.7244 27.8542 75.092 27.1392 76.9273 27.1392C78.3621 27.1392 79.5599 27.6979 80.5181 28.8167C81.4789 29.9367 81.958 31.4092 81.958 33.2354ZM79.205 33.3329C79.205 32.1654 78.9388 31.2029 78.404 30.4454C77.8196 29.6554 77.0351 29.2604 76.0515 29.2604C75.3848 29.2604 74.7789 29.4804 74.2377 29.9142C73.6952 30.3517 73.3403 30.9229 73.1743 31.6304C73.0906 31.9604 73.0488 32.2304 73.0488 32.4429V34.4429C73.0488 35.3154 73.32 36.0517 73.8625 36.6529C74.405 37.2542 75.1097 37.5542 75.9767 37.5542C76.9945 37.5542 77.7867 37.1667 78.3532 36.3942C78.9211 35.6204 79.205 34.6004 79.205 33.3329Z" fill="black"/>
<path d="M95.947 33.2354C95.947 35.2754 95.388 36.8879 94.2688 38.0717C93.2688 39.1254 92.0253 39.6517 90.5411 39.6517C88.939 39.6517 87.7881 39.0842 87.0885 37.9492H87.0378V44.2679H84.3355V31.3342C84.3355 30.0517 84.3013 28.7354 84.2354 27.3854H86.6119L86.7627 29.2867H86.8134C87.7133 27.8542 89.081 27.1392 90.9176 27.1392C92.3511 27.1392 93.5489 27.6979 94.5096 28.8167C95.4666 29.9367 95.947 31.4092 95.947 33.2354ZM93.194 33.3329C93.194 32.1654 92.9265 31.2029 92.3916 30.4454C91.8073 29.6554 91.0253 29.2604 90.0405 29.2604C89.3725 29.2604 88.7679 29.4804 88.2254 29.9142C87.6829 30.3517 87.3293 30.9229 87.1633 31.6304C87.0809 31.9604 87.0378 32.2304 87.0378 32.4429V34.4429C87.0378 35.3154 87.309 36.0517 87.849 36.6529C88.3914 37.2529 89.0962 37.5542 89.9657 37.5542C90.9835 37.5542 91.7757 37.1667 92.3422 36.3942C92.9101 35.6204 93.194 34.6004 93.194 33.3329Z" fill="black"/>
<path d="M111.588 34.7152C111.588 36.1302 111.09 37.2815 110.09 38.1702C108.991 39.1415 107.461 39.6265 105.496 39.6265C103.681 39.6265 102.225 39.2815 101.124 38.5902L101.75 36.369C102.937 37.0765 104.238 37.4315 105.657 37.4315C106.674 37.4315 107.467 37.204 108.036 36.7515C108.602 36.299 108.885 35.6915 108.885 34.934C108.885 34.259 108.652 33.6902 108.184 33.229C107.719 32.7677 106.942 32.339 105.857 31.9427C102.904 30.8565 101.428 29.2652 101.428 27.1727C101.428 25.8052 101.945 24.684 102.981 23.8115C104.013 22.9377 105.389 22.5015 107.11 22.5015C108.645 22.5015 109.92 22.7652 110.938 23.2915L110.263 25.464C109.312 24.954 108.237 24.699 107.034 24.699C106.084 24.699 105.341 24.9302 104.809 25.3902C104.359 25.8015 104.133 26.3027 104.133 26.8965C104.133 27.554 104.39 28.0977 104.907 28.5252C105.357 28.9202 106.175 29.3477 107.361 29.809C108.813 30.3852 109.879 31.059 110.564 31.8315C111.247 32.6015 111.588 33.5652 111.588 34.7152Z" fill="black"/>
<path d="M120.522 29.3852H117.544V35.209C117.544 36.6902 118.069 37.4302 119.121 37.4302C119.604 37.4302 120.004 37.389 120.321 37.3065L120.396 39.3302C119.863 39.5265 119.162 39.6252 118.294 39.6252C117.227 39.6252 116.393 39.304 115.791 38.6627C115.191 38.0202 114.89 36.9427 114.89 35.429V29.3827H113.115V27.3827H114.89V25.1865L117.544 24.3965V27.3827H120.522V29.3852Z" fill="black"/>
<path d="M133.962 33.2839C133.962 35.1276 133.427 36.6414 132.36 37.8251C131.241 39.0439 129.755 39.6514 127.903 39.6514C126.119 39.6514 124.698 39.0676 123.638 37.9001C122.579 36.7326 122.049 35.2589 122.049 33.4826C122.049 31.6239 122.594 30.1014 123.688 28.9176C124.779 27.7326 126.252 27.1401 128.104 27.1401C129.888 27.1401 131.324 27.7239 132.408 28.8926C133.445 30.0264 133.962 31.4901 133.962 33.2839ZM131.158 33.3701C131.158 32.2639 130.919 31.3151 130.433 30.5239C129.867 29.5664 129.057 29.0889 128.007 29.0889C126.921 29.0889 126.096 29.5676 125.529 30.5239C125.044 31.3164 124.804 32.2801 124.804 33.4201C124.804 34.5264 125.044 35.4751 125.529 36.2651C126.114 37.2226 126.93 37.7001 127.983 37.7001C129.015 37.7001 129.825 37.2126 130.409 36.2401C130.907 35.4339 131.158 34.4751 131.158 33.3701Z" fill="black"/>
<path d="M142.746 29.7292C142.478 29.6804 142.193 29.6554 141.894 29.6554C140.943 29.6554 140.208 30.0092 139.691 30.7179C139.241 31.3429 139.015 32.1329 139.015 33.0867V39.3804H136.314L136.34 31.1629C136.34 29.7804 136.305 28.5217 136.238 27.3867H138.592L138.691 29.6817H138.766C139.051 28.8929 139.501 28.2579 140.117 27.7817C140.719 27.3529 141.369 27.1392 142.07 27.1392C142.32 27.1392 142.545 27.1567 142.746 27.1879V29.7292Z" fill="black"/>
<path d="M154.832 32.8154C154.832 33.2929 154.8 33.6954 154.733 34.0242H146.626C146.658 35.2092 147.049 36.1154 147.802 36.7404C148.485 37.2992 149.369 37.5792 150.454 37.5792C151.654 37.5792 152.749 37.3904 153.734 37.0117L154.157 38.8617C153.006 39.3567 151.648 39.6029 150.08 39.6029C148.194 39.6029 146.713 39.0554 145.636 37.9617C144.561 36.8679 144.022 35.3992 144.022 33.5567C144.022 31.7479 144.523 30.2417 145.526 29.0404C146.575 27.7579 147.994 27.1167 149.778 27.1167C151.531 27.1167 152.858 27.7579 153.759 29.0404C154.473 30.0592 154.832 31.3192 154.832 32.8154ZM152.255 32.1242C152.273 31.3342 152.096 30.6517 151.73 30.0754C151.262 29.3342 150.544 28.9642 149.577 28.9642C148.693 28.9642 147.974 29.3254 147.426 30.0504C146.976 30.6267 146.708 31.3179 146.626 32.1229H152.255V32.1242Z" fill="black"/>
</svg>
