<svg width="596" height="484" viewBox="0 0 596 484" fill="none" xmlns="http://www.w3.org/2000/svg">
<path fill-rule="evenodd" clip-rule="evenodd" d="M74.6866 355.779V407.481L77.2643 411.416H49.4385L51.5543 407.481H51.6214V376.208L50.2357 371.905H55.1899H51.6884C51.2265 365.592 46.466 360.543 40.7816 360.543C35.0973 360.543 30.2697 365.592 29.8078 371.905H26.2392H31.2605L29.8748 376.208V407.481H29.9419L32.4525 411.416H4.69385L6.7426 407.481V349.985L0.730447 344.71H0.529297V344.191H6.7426V335.65H74.694V344.191H80.9744V344.71H80.6466L74.7015 349.985V355.779H74.6866Z" fill="white"/>
<path fill-rule="evenodd" clip-rule="evenodd" d="M76.6083 366.922V376.425H77.0702V411.416H156.584V376.425H157.441V365.809H156.316V286.476H157.903V284.249H154.729V280.908H153.604V279.87H153.276L152.017 277.341L150.699 274.662L149.439 277.341L148.18 279.87H147.853V280.908H129.079V284.249H125.838V286.476H127.626V322.655H119.826L118.567 312.03L118.306 309.208V294.054H120.422V292.195H118.306V290.185H116.518V292.195H114.402V294.054H116.518V308.84L116.123 312.03L114.864 322.655H106.073V286.476H107.66V284.249H104.486V280.908H86.1145V279.87H85.7867L84.5276 277.341L83.2686 274.662L81.9499 277.341L80.7579 279.87H80.3631V280.908H78.8433V284.249H75.6025V286.476H77.3831V365.809H76.5934V366.922H76.6083ZM106.088 325.996H114.946V332.234L114.417 333.197L111.377 338.547H106.088V325.988V325.996ZM119.833 325.996H127.633V338.555H123.402L120.429 333.205L119.833 332.242V326.004V325.996ZM107.474 353.333C107.734 347.983 111.437 343.755 116.131 343.378C111.437 343.746 107.734 348.058 107.474 353.333ZM117.591 343.378C119.572 343.529 121.36 344.416 122.813 345.756C121.36 344.425 119.572 343.529 117.591 343.378ZM151.563 339.292H132.394V322.948H151.563V339.292ZM144.686 325.552C145.349 325.552 145.945 325.996 145.945 326.515V337.584H143.435V326.515C143.435 325.996 143.964 325.552 144.694 325.552H144.686ZM139.732 325.552C140.395 325.552 140.991 325.996 140.991 326.515V337.584H138.481V326.515C138.481 325.996 139.009 325.552 139.74 325.552H139.732ZM147.532 344.718H150.11V341.821H147.532V344.718ZM133.981 344.718H136.625V341.821H133.981V344.718ZM94.451 325.552C95.1141 325.552 95.7101 325.996 95.7101 326.515V337.584H93.1994V326.515C93.1994 325.996 93.7284 325.552 94.4585 325.552H94.451ZM89.4968 325.552C90.1598 325.552 90.6888 325.996 90.6888 326.515V337.584H88.2452V326.515C88.2452 325.996 88.7741 325.552 89.5042 325.552H89.4968ZM97.2969 344.718H99.8746V341.821H97.2969V344.718ZM83.7454 344.718H86.3231V341.821H83.7454V344.718ZM151.756 409.264H149.968V389.655C149.968 383.634 142.101 378.736 142.101 378.736C142.101 378.736 134.234 383.643 134.234 389.655V409.264H131.656V376.425H151.749V409.264H151.756ZM126.836 409.264H124.787V389.655C124.787 383.634 116.92 378.736 116.92 378.736C116.92 378.736 109.053 383.643 109.053 389.655V409.264H106.803V376.425H126.829V409.264H126.836ZM101.923 409.264H99.6735V389.655C99.6735 383.634 91.8063 378.736 91.8063 378.736C91.8063 378.736 83.9391 383.643 83.9391 389.655V409.264H81.9574V376.425H101.916V409.264H101.923Z" fill="white"/>
<path fill-rule="evenodd" clip-rule="evenodd" d="M408.149 406.149H409.467L399.484 384.455C394.262 378.812 387.125 375.395 379.324 375.395C372.187 375.395 365.706 378.292 360.685 383.048L350.046 406.149H351.961V411.424H326.847V406.149H330.154L350.843 361.212V354.455H355.276L362.614 330.827V330.308H362.748L364.797 323.618H364.007V317.38H366.324V316.191H362.882V309.426H368.105C372.001 275.106 373.856 216.127 374.452 197.255H374.318V195.773H374.519L374.586 192.131H373.662V186.044H376.046V178.542H378.818V167.917H379.742V158.188H380.8V167.917H381.79V178.542H384.502V186.044H386.946V192.131H385.955L386.089 195.773H386.223V197.255H386.156C386.484 207.88 387.147 231.349 388.473 256.016L388.54 256.242L388.473 256.317C389.263 271.246 390.254 286.476 391.446 299.554C391.773 303.121 392.168 306.311 392.436 309.434H397.726V316.2H394.292V317.388H396.541V323.626H396.012L398.061 330.316L405.526 354.463H407.836V360.777L408.298 360.55L429.314 406.157H433.277V411.432H408.163V406.157L408.149 406.149ZM357.123 352.881L363.799 348.502L359.895 344.265L357.116 352.881H357.123ZM360.893 340.774L366.838 336.395L363.471 332.602L360.893 340.774ZM364.395 329.638L368.76 326.515L366.116 323.995L364.395 329.638ZM394.537 323.618H394.336L391.826 326.289L396.258 329.186L394.537 323.618ZM397.376 332.677L394.269 336.244L399.626 340.029L397.376 332.677ZM400.877 343.972L396.646 348.502L403.716 353.107L400.87 343.972H400.877ZM379.533 192.131L377.946 193.613L376.359 192.131H379.533ZM377.484 194.14L375.629 195.773L375.763 192.432L377.484 194.14ZM376.493 195.773L377.812 194.509L379.004 195.773H376.493ZM378.341 194.065L379.66 192.876V195.405L378.341 194.065ZM379.66 197.406L377.678 199.708L375.629 197.255H379.66V197.406ZM377.149 200.303L375.495 202.312L375.562 198.302L377.149 200.303ZM375.495 203.275L377.611 200.822L379.526 203.275H375.495ZM378.073 200.227L379.66 198.369V202.153L378.073 200.219V200.227ZM379.66 204.757L377.544 207.135L375.629 204.682H379.66V204.757ZM376.955 207.654L375.234 209.731L375.361 205.494L376.948 207.646L376.955 207.654ZM375.167 210.777L377.484 208.249L379.399 210.853H375.167V210.777ZM377.946 207.654L379.667 205.72V209.881L377.946 207.654ZM379.66 212.41L377.477 214.788L375.428 212.259H379.66V212.41ZM376.888 215.382L374.974 217.459V217.015L375.108 213.155L376.896 215.382H376.888ZM375.1 218.279L377.35 215.901L379.265 218.279H375.1ZM377.812 215.382L379.66 213.448V217.609L377.812 215.382ZM379.66 220.213L377.477 222.365L375.093 219.694H379.518L379.652 219.77V220.213H379.66ZM376.888 222.884L374.705 224.961L374.907 220.582L376.888 222.884ZM374.773 225.857L377.35 223.403L379.466 225.857H374.773ZM377.812 222.884L379.66 221.176V224.894L377.812 222.884ZM380.919 219.987L381.112 219.694H385.538L383.295 222.365L380.919 220.063V219.987ZM379.66 227.347L377.149 229.725L374.966 227.272H379.66V227.347ZM376.62 230.244L374.437 232.321L374.571 227.942L376.62 230.244ZM374.311 233.283L377.089 230.755L379.339 233.426H374.311V233.275V233.283ZM377.611 230.244L379.526 228.31V232.547L377.611 230.244ZM379.466 234.924L376.955 237.378L374.705 234.782H379.466V234.933V234.924ZM376.426 237.888L374.109 240.191L374.244 235.435L376.426 237.888ZM374.311 240.861L376.888 238.408L379.071 240.861H374.311ZM377.484 237.888L379.466 235.887V238.265L379.399 239.454V240.199L377.484 237.897V237.888ZM374.445 234.774L374.244 235.444L374.311 234.774H374.445ZM379.198 242.276L376.821 244.654L374.705 242.276H379.198ZM376.225 245.248L373.715 247.777L373.916 242.728L376.225 245.257V245.248ZM374.177 248.438L376.754 245.767L379.198 248.438H374.177ZM377.35 245.173L379.399 243.163L379.332 244.428V246.362L379.265 247.258L377.35 245.181V245.173ZM378.803 249.853L376.493 252.005L374.579 249.853H378.81H378.803ZM375.83 252.75L373.32 255.053L373.655 250.146L375.838 252.75H375.83ZM373.715 255.94L376.426 253.336L378.609 255.94H373.715ZM377.149 252.75L379.198 250.665V251.637L379.064 254.977L377.149 252.75ZM379.004 257.355L376.493 259.733L374.512 257.355H379.004ZM375.83 260.328L372.917 263.149L373.253 257.355L375.83 260.319V260.328ZM373.916 263.442L376.426 261.064L378.542 263.442H373.916ZM377.149 260.328L378.997 258.62V258.921L378.93 259.289V261.224L378.863 262.412L377.142 260.336L377.149 260.328ZM378.408 264.857L376.032 267.009L374.184 264.857H378.416H378.408ZM375.361 267.754L372.456 270.501L372.85 264.857L375.361 267.754ZM373.32 270.944L375.965 268.416L378.214 270.944H373.32ZM376.687 267.754L378.803 265.678L378.736 266.498V267.093L378.602 269.915L376.687 267.763V267.754ZM377.946 272.359L375.436 274.662L373.454 272.359H377.946ZM374.705 275.256L371.994 277.71L372.389 272.435L374.705 275.256ZM372.523 278.455L375.361 276.002L377.343 278.455H372.515H372.523ZM375.965 275.332L378.475 273.18C378.408 274.737 378.341 276.445 378.207 278.011L375.957 275.34L375.965 275.332ZM377.745 279.937L375.234 282.089L373.32 279.937H377.753H377.745ZM374.571 282.758L371.465 285.505C371.599 283.721 371.725 281.787 371.86 279.937H372.12L374.564 282.758H374.571ZM372.389 285.957L375.1 283.428L377.216 285.957H372.389ZM375.83 282.834L378.073 280.824C378.006 282.315 377.939 283.797 377.812 285.212L375.83 282.834ZM376.687 287.364L374.504 289.373L372.85 287.364H376.687ZM373.782 290.043L370.876 292.571C371.077 290.939 371.204 289.155 371.271 287.372H371.599L373.782 290.043ZM371.271 293.534L374.311 290.713L376.762 293.534H371.271ZM375.033 290.11L377.678 287.74C377.544 289.373 377.484 291.156 377.283 292.714L375.033 290.11ZM376.821 294.941L373.916 297.47L371.867 294.941H376.821ZM373.253 298.064L370.407 300.735H370.206C370.34 298.876 370.474 296.95 370.668 295.016L373.245 298.064H373.253ZM371.733 300.735L373.849 298.809L375.436 300.735H371.733ZM374.571 298.215L377.082 295.988C376.881 297.553 376.754 299.186 376.62 300.593L374.571 298.215ZM376.292 302.15L373.052 305.122L370.608 302.15H376.292ZM372.389 305.717L369.416 308.396C369.55 306.613 369.811 304.754 369.945 302.895L372.389 305.717ZM369.55 309.426L372.917 306.454L375.167 309.125V309.2L375.1 309.418H369.55V309.426ZM373.648 305.792L376.225 303.49C375.965 305.122 375.763 306.688 375.495 308.019L373.648 305.792ZM381.187 192.131L382.833 193.613L384.353 192.131H381.18H381.187ZM383.303 194.14L384.89 195.555L384.823 192.583L383.303 194.14ZM384.16 195.773L382.9 194.509L381.649 195.773H384.16ZM382.372 194.065L380.919 192.65V195.547L382.372 194.065ZM380.919 197.255L383.094 199.708L384.949 197.33V197.255H380.919ZM383.564 200.303L385.016 202.086L384.949 198.595L383.564 200.303ZM385.083 203.124L383.169 200.822L381.12 203.275H385.083V203.124ZM382.64 200.227L380.926 198.218V202.379L382.64 200.227ZM381.053 204.69L383.236 207.143L385.016 204.69H381.053ZM383.698 207.654L385.284 209.438L385.217 205.72L383.698 207.654ZM385.344 210.484L383.295 208.257L381.381 210.861H385.344V210.484ZM382.766 207.654L380.919 205.578V210.258L382.766 207.654ZM380.919 212.268L383.295 214.796L385.344 212.268H380.919ZM383.832 215.382L385.545 217.166L385.411 213.373L383.824 215.382H383.832ZM385.545 218.279L383.37 215.901L381.515 218.279H385.545ZM382.833 215.382L380.919 213.306V217.836L382.833 215.382ZM383.832 222.884L385.813 224.818L385.679 220.733L383.832 222.884ZM385.881 225.781L383.37 223.403L381.187 225.857H385.881V225.781ZM382.833 222.884L380.919 221.026V225.036L382.833 222.884ZM381.053 227.272L383.631 229.725L385.813 227.272H381.053ZM384.16 230.244L386.141 232.178L385.94 228.243L384.152 230.252L384.16 230.244ZM386.141 233.141L383.698 230.763L381.448 233.434H386.208L386.141 233.141ZM383.169 230.244L380.986 228.159V232.689L383.169 230.236V230.244ZM381.053 234.774L383.765 237.369L386.074 234.774H381.053ZM384.353 237.888L386.469 239.973L386.268 235.661L384.353 237.888ZM386.469 240.861L383.824 238.408L381.641 240.861H386.469ZM383.303 237.888L381.053 235.661V238.257L381.12 239.446V240.342L383.303 237.888ZM381.582 242.276L383.832 244.654L385.948 242.276H381.582ZM384.487 245.248L386.804 247.551L386.603 242.946L384.487 245.248ZM386.603 248.438L384.025 245.767L381.582 248.438H386.603ZM383.362 245.173L381.112 242.946L381.18 244.428V246.362L381.247 247.475L383.362 245.173ZM381.91 249.853L384.227 252.005L386.141 249.853H381.91ZM384.882 252.75L387.132 254.827L386.931 250.372L384.882 252.75ZM386.998 255.94L384.353 253.336L382.036 255.94H386.991H386.998ZM383.631 252.75L381.254 250.523L381.388 251.637L381.455 255.203L383.638 252.75H383.631ZM381.776 257.355L384.152 259.733L386.268 257.355H381.776ZM384.882 260.328L387.594 263.007L387.266 257.657L384.89 260.328H384.882ZM386.804 263.442L384.361 261.064L382.245 263.442H386.804ZM383.631 260.328L381.515 258.394V258.913L381.582 259.281V261.215L381.649 262.622L383.631 260.319V260.328ZM382.372 264.857L384.621 267.009L386.603 264.857H382.372ZM385.344 267.754L388.056 270.283L387.788 265.008L385.344 267.754ZM387.46 270.944L384.815 268.416L382.498 270.944H387.46ZM384.092 267.754L381.776 265.527L381.843 266.49V267.085L381.91 270.208L384.092 267.754ZM382.766 272.359L385.344 274.662L387.199 272.359H382.766ZM386.074 275.256L388.458 277.559L388.123 272.728L386.074 275.256ZM388.123 278.455L385.411 276.002L383.295 278.455H388.116H388.123ZM384.688 275.332L382.044 272.879C382.111 274.737 382.245 276.521 382.312 278.229L384.688 275.332ZM382.968 279.937L385.478 282.089L387.393 279.937H382.96H382.968ZM386.208 282.758L389.114 285.362C388.913 283.504 388.786 281.796 388.719 279.937H388.652L386.208 282.758ZM388.391 285.957L385.545 283.428L383.496 285.957H388.384H388.391ZM384.882 282.834L382.439 280.607C382.506 282.239 382.64 283.872 382.707 285.438L384.89 282.834H384.882ZM384.092 287.364L386.275 289.373L387.929 287.364H384.1H384.092ZM386.998 290.043L389.643 292.421C389.509 290.713 389.315 289.08 389.248 287.372H389.181L386.998 290.043ZM389.509 293.534L386.335 290.713L384.018 293.534H389.501H389.509ZM385.679 290.11L382.841 287.439C382.908 289.373 383.102 291.232 383.243 293.007L385.687 290.11H385.679ZM383.958 294.941L386.737 297.47L388.92 294.941H383.966H383.958ZM387.46 298.064L390.365 300.735C390.164 298.952 390.038 297.093 389.836 295.309L387.46 298.056V298.064ZM388.92 300.735L386.938 298.809L385.284 300.735H388.92ZM386.208 298.215L383.496 295.761C383.631 297.47 383.757 299.178 384.025 300.735L386.208 298.206V298.215ZM384.42 302.15L387.661 305.122L390.105 302.15H384.42ZM388.391 305.717L391.103 308.17C390.969 306.537 390.708 304.829 390.574 303.121L388.391 305.725V305.717ZM391.096 309.426L387.788 306.454L385.344 309.351L385.411 309.426H391.096ZM387.065 305.792L384.353 303.264C384.554 305.122 384.815 306.755 385.076 308.17L387.058 305.792H387.065ZM365.251 330.299H372.657L369.55 327.327L365.251 330.299ZM372.783 323.618L369.55 325.92L367.233 323.618H372.783ZM370.34 326.741L374.638 323.618H375.234L374.445 330.308H374.184L370.347 326.741H370.34ZM391.036 327.034L387.929 330.299H396.065L391.043 327.034H391.036ZM387.661 323.618L390.969 325.77L393.018 323.618H387.661ZM390.172 326.515L385.545 323.618L386.536 330.308L390.172 326.515ZM361.683 342.038H371.927L367.829 337.508L361.683 342.038ZM373.186 331.714L367.829 335.65L364.328 331.714H373.186ZM368.887 336.763L374.042 333.054L372.85 341.301L368.887 336.772V336.763ZM393.211 337.358L389.047 342.038H400.013L393.211 337.358ZM387.795 331.714L393.219 335.507L396.586 331.714H387.795ZM392.22 336.613L386.804 332.828L387.929 340.774L387.996 341.368L392.228 336.613H392.22ZM395.595 349.616L391.23 354.447H402.665L395.595 349.616ZM389.248 343.453L395.528 347.69L399.425 343.453H389.248ZM394.403 348.946L388.525 344.935L389.777 353.928L394.403 348.954V348.946ZM357.787 354.447H369.356L364.864 349.616L357.794 354.447H357.787ZM371.204 343.453L364.991 347.69L361.027 343.453H371.204ZM366.049 348.946L372.396 344.709L371.077 354.296L366.056 348.946H366.049ZM392.22 368.63V370.933C392.682 371.159 393.152 371.377 393.547 371.527L392.22 368.63ZM391.691 370.715V367.45L390.835 365.591V370.347L391.691 370.715ZM390.239 370.196V364.402L389.71 363.213H389.382V369.819L390.239 370.188V370.196ZM388.786 369.601V363.213H387.989V369.375L388.786 369.593V369.601ZM387.393 369.3V363.213H386.536V369.007L387.393 369.3ZM385.94 368.932V363.213H385.076V368.789L385.94 368.94V368.932ZM384.554 368.63V363.205H383.698V368.479L384.554 368.63ZM383.169 368.413V363.213H382.304V368.337L383.169 368.413ZM381.776 368.337V363.213H380.919V368.262L381.776 368.337ZM380.323 368.262V363.213H379.466V368.262H380.323ZM378.87 368.262V363.213H378.073V368.262H378.87ZM377.484 368.262V363.213H376.628V368.337L377.484 368.262ZM376.032 368.413V363.213H375.167V368.488L376.032 368.413ZM374.638 368.563V363.213H373.782V368.639L374.638 368.563ZM373.253 368.856V363.213H372.389V369.007L373.253 368.856ZM371.867 369.082V363.213H371.01V369.375L371.867 369.082ZM370.407 369.526V363.213H369.811L369.55 363.732V369.819L370.407 369.526ZM368.954 369.97V364.988L368.157 366.847V370.263L368.954 369.97ZM411.717 404.441L415.152 399.543L407.746 395.825L411.71 404.441H411.717ZM416.411 397.902L419.778 393.221H407.158L416.411 397.902ZM421.037 394.636L418.132 398.797L424.412 401.845L421.044 394.636H421.037ZM416.872 400.43L412.842 406.149H426.327L425.731 404.809L416.872 400.43ZM405.511 390.994L409.341 387.955L403.001 385.426L405.511 390.994ZM410.86 386.833L414.429 384.086H404.252L410.86 386.833ZM416.344 384.379L412.44 387.427L418.921 390.031L416.344 384.388V384.379ZM410.86 388.616L406.83 391.806H418.661L410.86 388.616ZM402.993 382.671H414.161L406.822 379.699L402.993 382.671ZM401.406 382.077L405.236 379.105L398.829 376.509L401.406 382.077ZM406.83 377.849L410.6 374.952H399.626L406.83 377.849ZM412.179 375.538L408.417 378.51L414.757 381.114L412.179 375.538ZM397.51 373.612H411.322L410.063 370.866H396.251L397.502 373.612H397.51ZM347.669 404.592L344.168 399.543L351.767 395.825L347.669 404.592ZM342.909 397.902L339.609 393.221H352.236L342.916 397.902H342.909ZM338.417 394.712L341.195 398.797L335.176 401.77L338.417 394.712ZM342.454 400.43L346.552 406.149H333.202L333.798 404.742L342.454 400.43ZM353.95 391.069L350.046 387.955L356.527 385.351L353.95 391.069ZM348.467 386.833L344.965 384.086H355.142L348.467 386.833ZM343.177 384.455L346.947 387.427L340.599 390.031L343.177 384.455ZM348.467 388.616L352.564 391.806H340.666L348.467 388.616ZM356.401 382.671H345.226L352.564 379.699L356.401 382.671ZM409.408 369.451H395.595L392.749 363.213H406.562L409.4 369.451H409.408ZM357.98 382.152L354.084 379.105L360.692 376.509L357.98 382.152ZM352.564 377.849L348.802 374.952H359.709L352.572 377.849H352.564ZM347.208 375.613L350.977 378.51L344.697 381.039L347.208 375.613ZM362.018 373.612H348.139L349.398 370.866H363.277L362.026 373.612H362.018ZM363.866 369.451H350.053L352.959 363.213H366.771L363.866 369.451ZM376.158 327.704H384.815L388.451 354.447H372.389L374.244 340.774L376.158 327.704ZM384.554 326.289H376.292L376.687 323.618H384.16L384.554 326.289ZM367.568 370.489V368.036L366.116 371.159C366.578 370.857 367.039 370.715 367.568 370.489ZM396.452 377.773L395.729 376.216C390.902 373.018 385.352 371.243 379.339 371.243C373.849 371.243 368.634 372.8 364.134 375.546L363.471 377.037C368.164 374.064 373.581 372.281 379.332 372.281C385.672 372.281 391.431 374.29 396.452 377.782V377.773Z" fill="white"/>
<path fill-rule="evenodd" clip-rule="evenodd" d="M257.845 348.059V353.334H258.441V354.305H258.24C275.091 366.27 265.645 369.979 267.627 372.357C264.386 372.281 261.153 372.281 257.845 372.357H247.929C249.188 369.753 239.406 366.337 256.854 354.305H256.653V353.334H257.249V348.36H256.854C256.124 348.36 255.468 347.841 255.2 347.021C255.528 347.397 255.93 347.54 256.392 347.54C257.383 347.54 258.24 346.652 258.24 345.53C258.24 345.304 258.173 345.011 258.105 344.86C258.5 345.229 258.701 345.748 258.701 346.275C258.701 347.021 258.374 347.682 257.845 348.059ZM224.931 376.953C225.132 376.51 223.545 375.982 226.45 373.981C229.229 375.982 227.709 376.585 228.037 376.953H224.931ZM224.797 380.37H227.97V378.435H224.797V380.37ZM225.393 379.926H225.989V378.812H225.393V379.926ZM226.845 379.926H227.374V378.812H226.845V379.926ZM226.123 379.926H226.652V378.812H226.123V379.926ZM224.402 378.218H228.432V377.849H224.402V378.218ZM224.402 377.548H228.432V377.171H224.402V377.548ZM224.402 380.964H228.432V380.671H224.402V380.964ZM224.402 381.408H228.432V381.115H224.402V381.408ZM224.729 381.483H228.037V390.693H224.729V381.483ZM228.037 391.296V399.242H224.729V391.296H228.037ZM228.037 399.836V404.743H231.934V382.011L238.475 380.52V404.743H238.735V376.518H239.592V376.217H247.258V373.613H267.88V375.764V376.208H275.814V376.51H276.477V404.734H276.872V380.143L283.219 382.153V404.734H287.518V399.828H290.759V404.734H296.644V396.789H301.934V404.734H308.676V406.736H206.626V404.734H213.569V396.789H218.926V404.734H224.744V399.828H228.052L228.037 399.836ZM218.65 359.571C218.322 358.902 220.9 358.089 216.207 354.891C211.647 358.006 214.158 358.977 213.629 359.571H218.65ZM218.784 365.139H213.696V362.016H218.784V365.139ZM217.853 364.478H216.996V362.694H217.853V364.478ZM215.477 364.478H214.62V362.694H215.477V364.478ZM216.669 364.478H215.812V362.694H216.669V364.478ZM219.574 361.874H212.966V361.062H219.574V361.874ZM219.574 360.685H212.966V359.94H219.574V360.685ZM219.574 366.111H212.966V365.365H219.574V366.111ZM219.574 366.847H212.966V366.328H219.574V366.847ZM308.676 411.424H206.626V407.414H308.676V411.424ZM218.911 366.998H213.554V381.927H218.911V366.998ZM296.845 359.571C297.24 358.902 294.596 358.089 299.356 354.891C303.916 358.006 301.405 358.977 301.934 359.571H296.845ZM301.867 365.139V362.016H302.597V361.053H295.989V362.016H296.719V365.139H295.989V366.998H296.652V381.927H301.941V366.998H302.604V365.139H301.874H301.867ZM297.702 364.478H298.559V362.694H297.702V364.478ZM300.019 364.478H300.943V362.694H300.019V364.478ZM298.894 364.478H299.758V362.694H298.894V364.478ZM295.981 360.911H302.589V359.948H295.981V360.911ZM301.934 382.898V395.75H296.644V382.898H301.934ZM248.525 404.734H266.703V377.766H248.525V404.734ZM290.632 376.953C290.431 376.51 292.018 375.982 289.112 373.981C286.266 375.982 287.853 376.585 287.526 376.953H290.632ZM290.759 380.37H287.585V378.435H290.759V380.37ZM290.103 379.926H289.574V378.812H290.103V379.926ZM288.71 379.926H288.181V378.812H288.71V379.926ZM289.373 379.926H288.844V378.812H289.373V379.926ZM291.154 378.293H287.123V377.849H291.154V378.293ZM291.154 377.548H287.123V377.171H291.154V377.548ZM291.154 380.964H287.123V380.596H291.154V380.964ZM291.154 381.483H290.759V390.693H287.518V381.483H287.123V381.115H291.154V381.483ZM287.526 391.296V399.242H290.766V391.296H287.526ZM213.562 382.898V395.75H218.918V382.898H213.562ZM236.694 397.015V402.516L233.327 402.591V397.467C233.327 396.504 234.914 394.938 234.981 394.938C235.048 394.938 236.702 396.052 236.702 397.015H236.694ZM236.694 387.796V393.222L233.327 393.666V388.24C233.327 387.202 234.914 385.636 234.981 385.636C235.048 385.561 236.702 386.674 236.702 387.788L236.694 387.796ZM278.794 397.015V402.516L282.169 402.591V397.467C282.169 396.504 280.515 394.938 280.448 394.938C280.381 394.938 278.794 396.052 278.794 397.015ZM278.794 387.796V393.222L282.169 393.666V388.24C282.169 387.202 280.515 385.636 280.448 385.636C280.381 385.561 278.794 386.674 278.794 387.788V387.796ZM268.886 375.764C269.288 374.944 266.107 373.981 271.925 370.046H271.664V369.753H271.866V368.413H271.664C271.463 368.413 271.203 368.187 271.136 367.969C271.203 368.045 271.396 368.12 271.53 368.12C271.858 368.12 272.126 367.827 272.126 367.526C272.126 367.45 272.126 367.383 272.059 367.308C272.193 367.383 272.253 367.526 272.253 367.752C272.253 367.978 272.186 368.12 272.059 368.271V369.753H272.193V370.046H271.933C277.483 373.839 274.577 375.028 275.106 375.764H268.893H268.886ZM259.297 388.985V393.222H263.134V388.834C263.134 386.306 257.912 382.89 257.644 382.89C257.375 382.89 252.16 386.306 252.16 388.834V393.222H255.93V388.985C255.93 388.24 257.517 387.202 257.651 387.202C257.718 387.202 259.305 388.24 259.305 388.985H259.297ZM259.297 398.421V402.583H255.93V398.421C255.93 397.601 257.517 396.571 257.651 396.571C257.718 396.571 259.305 397.609 259.305 398.421H259.297ZM263.134 394.712H252.16V402.583H250.574V380.001H264.654V402.583H263.134V394.712ZM241.85 389.956H243.168V392.778H241.85V389.956ZM241.85 399.761H243.168V402.583H241.85V399.761ZM272.186 399.761H273.505V402.583H272.186V399.761ZM272.186 389.956H273.505V392.778H272.186V389.956ZM240.658 377.992H241.85V380.001H240.658V377.992ZM273.706 377.992H274.965V380.001H273.706V377.992ZM271.724 377.992H272.916V380.001H271.724V377.992ZM269.675 377.992H270.867V380.001H269.675V377.992ZM244.755 377.992H245.947V380.001H244.755V377.992ZM242.706 377.992H243.898V380.001H242.706V377.992ZM270.405 394.486H272.253C271.858 394.712 271.463 395.081 271.262 395.231C270.867 395.6 270.338 396.278 270.338 396.939V402.884H275.427V396.939C275.427 396.27 274.831 395.6 274.436 395.231C274.302 395.081 273.84 394.712 273.445 394.486H275.427V393.892H270.405V394.486ZM240.002 384.38H242.252C241.857 384.606 241.127 385.276 240.933 385.418C240.538 385.787 239.942 386.457 239.942 387.126V393.071H245.031V387.126C245.031 386.457 244.435 385.787 244.04 385.418C243.839 385.192 243.183 384.598 242.721 384.38H245.038V383.786H240.017V384.38H240.002ZM240.002 394.486H241.917C241.522 394.712 241.06 395.081 240.926 395.231C240.531 395.6 239.935 396.278 239.935 396.939V402.884H245.023V396.939C245.023 396.27 244.494 395.6 244.032 395.231C243.898 395.081 243.503 394.712 243.109 394.486H245.023V393.892H240.002V394.486ZM270.271 384.38H272.648C272.186 384.606 271.456 385.201 271.322 385.418C270.86 385.787 270.331 386.457 270.331 387.126V393.071H275.419V387.126C275.419 386.457 274.823 385.787 274.428 385.418C274.227 385.268 273.505 384.598 273.11 384.38H275.226V383.786H270.271V384.38ZM243.571 367.3C243.705 367.375 243.772 367.517 243.772 367.743C243.772 367.969 243.705 368.112 243.571 368.262V369.744H243.772V370.037H243.176V369.744H243.377V368.405H243.176C242.975 368.405 242.781 368.179 242.647 367.961C242.781 368.036 242.915 368.112 243.042 368.112C243.369 368.112 243.638 367.819 243.638 367.517C243.638 367.442 243.638 367.375 243.571 367.3ZM243.436 370.046C248.987 373.839 246.148 375.028 246.61 375.764H240.397C240.859 374.944 237.618 373.981 243.436 370.046Z" fill="white"/>
<path fill-rule="evenodd" clip-rule="evenodd" d="M331.011 295.242H329.827V285.731L329.693 285.882L329.492 285.731V288.779L329.231 288.41L328.97 288.929L328.702 289.448L328.374 288.929L328.106 288.41L327.778 288.929L327.517 289.448L327.19 288.929L326.921 288.41L326.594 288.929L326.325 289.448L326.065 288.929L325.737 288.41L325.469 288.929L325.141 289.448L324.88 288.929L324.552 288.41L324.292 288.929L324.023 289.448L323.688 288.929L323.427 288.41L323.099 288.929L322.831 289.448L322.504 288.929L322.243 288.41L321.915 288.929L321.654 289.448L321.386 288.929L321.058 288.41L320.797 288.929L320.47 289.448L320.209 288.929L319.881 288.41L319.62 288.929L319.36 289.448L319.024 288.929L318.756 288.41L318.428 288.929L318.168 289.448L317.84 288.929L317.579 288.41L317.244 288.929L316.983 289.448L316.722 288.929L316.387 288.41L316.126 288.929L315.799 289.448L315.538 288.929L315.21 288.41L314.949 288.929L314.681 289.448L314.353 288.929L314.092 288.41L313.757 288.929L313.496 289.448L313.169 288.929L312.9 288.41L312.573 288.929L312.312 289.448L312.051 288.929L311.723 288.41L311.455 288.929L311.127 289.448L310.867 288.929L310.539 288.41L310.271 288.929L310.01 289.448L309.682 288.929L309.421 288.41L309.153 288.854V285.739L308.959 285.89L308.758 285.739V295.251H307.633V291.533L307.499 291.751L307.298 291.533V322.362H331.421V291.533L331.22 291.751L331.086 291.533V295.251L331.011 295.242ZM331.742 411.424H306.158V394.268H331.742V411.424ZM329.231 392.928V376.886H328.173V392.928H327.376V376.886H326.251V392.928H325.461V376.886H324.403V392.928H323.547V376.886H322.489V392.928H321.632V376.886H320.574V392.928H319.717V376.886H318.659V392.928H317.803V376.886H316.745V392.928H315.947V376.886H314.823V392.928H314.033V376.886H312.975V392.928H312.118V376.886H311.06V392.928H310.204V376.886H309.146V392.928H308.289V359.722H330.102V392.928H329.246H329.231ZM328.173 375.99H329.231V360.467H328.173V375.99ZM309.138 375.99H310.196V360.467H309.138V375.99ZM311.053 375.99H312.111V360.467H311.053V375.99ZM312.967 375.99H314.025V360.467H312.967V375.99ZM314.823 375.99H315.947V360.467H314.823V375.99ZM316.737 375.99H317.795V360.467H316.737V375.99ZM318.652 375.99H319.71V360.467H318.652V375.99ZM320.574 375.99H321.632V360.467H320.574V375.99ZM322.489 375.99H323.547V360.467H322.489V375.99ZM324.403 375.99H325.461V360.467H324.403V375.99ZM326.258 375.99H327.383V360.467H326.258V375.99ZM309.667 284.919L308.87 284.174L308.147 284.919L308.87 285.806L309.667 284.919ZM330.423 284.919L329.7 284.174L328.97 284.919L329.7 285.806L330.423 284.919ZM331.876 290.713L331.145 289.968L330.482 290.713L331.145 291.6L331.876 290.713ZM308.08 290.713L307.425 289.968L306.695 290.713L307.425 291.6L308.08 290.713ZM308.676 284.249V283.73H309.071V284.249L308.877 284.023L308.676 284.249ZM329.492 284.249V283.73H329.827V284.249L329.693 284.023L329.492 284.249ZM307.224 290.043V289.448H307.551V289.968L307.417 289.817L307.216 290.043H307.224ZM331.011 289.968V289.448H331.339V290.043L331.138 289.817L331.004 289.968H331.011ZM314.092 279.937L310.919 288.779L310.986 288.854L311.053 289.005L311.649 288.042L312.111 288.862L312.245 289.013L312.379 288.862L312.841 288.042L313.437 289.08L313.571 288.854L314.033 287.966L314.428 288.854L314.629 289.08L315.158 288.042L315.687 288.862L315.754 289.013L315.888 288.862L316.35 288.042L316.812 288.862L316.946 289.013L317.08 288.862L317.542 288.042L318.004 288.862L318.138 289.088L318.272 288.862L318.734 287.975L319.136 288.862L319.337 289.088L319.404 288.862L319.866 288.042L320.395 288.862L320.462 289.013L321.058 288.05L321.52 288.871L321.654 289.021L321.788 288.871L322.25 288.05L322.846 289.088L322.98 288.862L323.442 287.975L323.904 288.862L324.038 289.088L324.567 288.05L325.096 288.871L325.163 289.021L325.759 288.059L326.221 288.879L326.355 289.03L326.489 288.879L326.951 288.059L327.547 289.021L327.614 288.871L327.681 288.795L324.508 279.954H314.13L314.092 279.937ZM315.15 285.957L314.495 284.693L314.294 284.4L313.429 285.957L313.69 286.108L314.286 284.994L314.815 286.108L315.143 285.957H315.15ZM320.112 282.985L319.449 281.645L319.315 281.352L318.451 282.985L318.711 283.135L319.307 282.022L319.836 283.135L320.105 282.985H320.112ZM323.412 282.985L322.69 281.645L322.556 281.352L321.699 282.985L321.967 283.135L322.563 282.022L323.092 283.135L323.42 282.985H323.412ZM325.066 285.957L324.336 284.693L324.202 284.4L323.405 285.957L323.606 286.108L324.202 284.994L324.798 286.108L325.066 285.957ZM321.699 285.957L321.103 284.693L320.902 284.4L320.045 285.957L320.306 286.108L320.902 284.994L321.498 286.108L321.699 285.957ZM318.391 285.957L317.795 284.693L317.594 284.4L316.737 285.957L316.998 286.108L317.594 284.994L318.123 286.108L318.384 285.957H318.391ZM317.139 282.985L316.544 281.645L316.342 281.352L315.486 282.985L315.746 283.135L316.342 282.022L316.871 283.135L317.139 282.985ZM312.044 290.788H309.667V294.43H312.044V290.788ZM328.568 290.788H326.251V294.43H328.568V290.788ZM325.334 290.788H322.891V294.43H325.334V290.788ZM322.027 290.788H319.583V294.43H322.027V290.788ZM318.719 290.788H316.275V294.43H318.719V290.788ZM315.352 290.788H312.975V294.43H315.352V290.788ZM320.239 257.431H318.324V255.873H320.239V257.431ZM314.033 269.387L313.303 268.567L312.573 269.387L313.303 270.199L314.033 269.387ZM325.99 269.387L325.267 268.567L324.537 269.387L325.267 270.199L325.99 269.387ZM324.865 272.586L324.604 273.18L324.336 273.775H324.269L324.068 273.18L323.74 272.586L323.412 273.18L323.211 273.775L322.95 273.18L322.623 272.586L322.362 273.18L322.101 273.775L321.833 273.18L321.572 272.586L321.237 273.18L320.976 273.775L320.715 273.18L320.455 272.586L320.127 273.18L319.926 273.775H319.859L319.598 273.18L319.337 272.586L319.002 273.18L318.801 273.775H318.734L318.473 273.18L318.212 272.586L317.884 273.18L317.683 273.775H317.616L317.348 273.18L317.087 272.586L316.76 273.18L316.558 273.775H316.499L316.231 273.18L315.903 272.586L315.642 273.18L315.381 273.775L315.18 273.18L314.852 272.586L314.525 273.18L314.323 273.775H314.256L314.055 273.18L313.72 272.586L313.519 272.954V270.35L313.318 270.501L313.117 270.35V273.766V279.485H325.476V273.766V270.35L325.282 270.501L325.081 270.35V272.954L324.88 272.586H324.865ZM319.315 254.978C319.315 255.204 319.248 255.421 319.248 255.647H319.315V254.978ZM319.054 257.657C318.324 262.781 316.208 267.311 314.755 272.142V272.066L315.284 273.105L315.352 273.255L315.88 272.066L316.409 273.105L316.476 273.255L316.536 273.105L317.065 272.066L317.594 273.255L317.661 273.105L318.19 272.066L318.719 273.255L318.786 273.105L319.315 272.066L319.777 273.105L319.844 273.255L319.911 273.105L320.44 272.066L320.969 273.255L321.036 273.105L321.565 272.066L322.094 273.255L322.161 273.105L322.69 272.066L323.085 273.105L323.219 273.255L323.286 273.105L323.748 272.066C323.882 271.84 319.717 259.733 319.449 257.657H319.054ZM320.112 264.631L319.449 263.442L319.315 263.074L318.451 264.631L318.711 264.849L319.307 263.736L319.836 264.849L320.105 264.631H320.112ZM317.601 271.028L317.005 269.689L316.812 269.396L315.947 271.028L316.208 271.179L316.804 269.99L317.333 271.179L317.601 271.028ZM320.112 271.028L319.449 269.689L319.315 269.396L318.451 271.028L318.711 271.179L319.307 269.99L319.836 271.179L320.105 271.028H320.112ZM322.623 271.028L321.96 269.689L321.759 269.396L320.894 271.028L321.222 271.179L321.751 269.99L322.347 271.179L322.608 271.028H322.623ZM318.652 267.972L317.989 266.633L317.788 266.339L316.998 267.972L317.259 268.123L317.788 266.934L318.384 268.123L318.652 267.972ZM321.565 267.972L320.902 266.633L320.768 266.339L319.911 267.972L320.112 268.123L320.768 266.934L321.297 268.123L321.565 267.972ZM313.102 268.5V267.981H313.496V268.5L313.295 268.282L313.094 268.5H313.102ZM325.066 268.5V267.981H325.461V268.5L325.267 268.282L325.066 268.5ZM315.612 274.888H313.757V278.606H315.612V274.888ZM324.798 274.888H322.95V278.606H324.798V274.888ZM322.489 274.888H320.641V278.606H322.489V274.888ZM320.239 274.888H318.391V278.606H320.239V274.888ZM317.929 274.888H316.082V278.606H317.929V274.888ZM328.307 357.863H329.365V340.925H328.307V357.863ZM309.205 357.863H310.263V340.925H309.205V357.863ZM311.12 357.863H312.178V340.925H311.12V357.863ZM313.035 357.863H314.092V340.925H313.035V357.863ZM314.957 357.863H316.015V340.925H314.957V357.863ZM316.871 357.863H317.929V340.925H316.871V357.863ZM318.719 357.863H319.844V340.925H318.719V357.863ZM320.634 357.863H321.691V340.925H320.634V357.863ZM322.556 357.863H323.614V340.925H322.556V357.863ZM324.47 357.863H325.528V340.925H324.47V357.863ZM326.392 357.863H327.45V340.925H326.392V357.863ZM328.307 340.029H329.365V324.43H328.307V340.029ZM309.205 340.029H310.263V324.43H309.205V340.029ZM311.12 340.029H312.178V324.43H311.12V340.029ZM313.035 340.029H314.092V324.43H313.035V340.029ZM314.957 340.029H316.015V324.43H314.957V340.029ZM316.871 340.029H317.929V324.43H316.871V340.029ZM318.719 340.029H319.844V324.43H318.719V340.029ZM320.634 340.029H321.691V324.43H320.634V340.029ZM322.556 340.029H323.614V324.43H322.556V340.029ZM324.47 340.029H325.528V324.43H324.47V340.029ZM326.392 340.029H327.45V324.43H326.392V340.029ZM330.155 323.769H308.408V358.533H330.155V323.769ZM311.187 320.051H309.935V321.466H311.187V320.051ZM328.568 320.051H327.316V321.466H328.568V320.051ZM326.981 320.051H325.722V321.466H326.981V320.051ZM325.394 320.051H324.142V321.466H325.394V320.051ZM323.807 320.051H322.556V321.466H323.807V320.051ZM322.228 320.051H320.969V321.466H322.228V320.051ZM320.634 320.051H319.382V321.466H320.634V320.051ZM319.054 320.051H317.795V321.466H319.054V320.051ZM317.467 320.051H316.208V321.466H317.467V320.051ZM315.88 320.051H314.688V321.466H315.88V320.051ZM314.361 320.051H313.102V321.466H314.361V320.051ZM312.774 320.051H311.515V321.466H312.774V320.051ZM319.315 309.652C319.181 309.652 319.054 309.577 318.92 309.577L318.458 310.096C318.391 310.389 318.391 310.615 318.257 310.766C318.19 310.841 318.063 310.841 317.929 310.766C317.84 310.621 317.731 310.473 317.601 310.322C317.467 310.247 317.467 310.104 317.601 309.954C317.735 309.803 317.929 309.727 318.13 309.727L318.659 309.208C318.525 309.133 318.525 308.907 318.525 308.765V308.539L313.765 302.82V302.669H313.899C313.899 302.594 313.966 302.594 313.966 302.669L318.987 307.944C319.054 307.869 319.188 307.869 319.322 307.869C319.456 307.869 319.65 307.944 319.784 308.019L320.574 307.207C320.507 307.207 320.44 307.132 320.44 307.057C320.306 306.981 320.306 306.755 320.44 306.688C320.574 306.537 320.902 306.462 321.23 306.462L321.364 306.311V305.935H321.826V306.378H321.565L321.364 306.604C321.364 306.973 321.364 307.35 321.23 307.5C321.095 307.576 320.902 307.576 320.835 307.5L320.768 307.425L319.978 308.312C320.045 308.463 320.112 308.606 320.112 308.756C320.112 308.907 320.045 308.982 320.045 309.049C320.239 309.418 320.641 309.719 321.036 309.87C321.036 309.87 321.103 309.87 321.103 309.945C321.103 310.021 321.103 310.096 321.036 310.096C320.902 310.096 320.902 310.171 320.902 310.247C320.835 310.247 320.835 310.322 320.835 310.397C320.835 310.473 320.768 310.548 320.768 310.548C320.634 310.548 320.567 310.548 320.567 310.623C320.499 310.623 320.432 310.699 320.432 310.774H320.365C320.298 310.849 320.298 310.774 320.231 310.774C320.105 310.255 319.836 309.962 319.442 309.66H319.307L319.315 309.652ZM319.121 301.036H318.659L318.592 300.074H318.525H319.121V301.036ZM318.257 301.112C318.063 301.187 317.862 301.187 317.661 301.263L317.467 300.3C317.661 300.224 317.929 300.149 318.19 300.149L318.257 301.112ZM317.333 301.33C317.199 301.405 317.072 301.48 316.871 301.48L316.536 300.593C316.737 300.517 316.931 300.442 317.132 300.375L317.326 301.338L317.333 301.33ZM316.611 301.631C316.409 301.782 316.208 301.857 316.015 301.924L315.553 301.103C315.754 300.953 316.015 300.81 316.275 300.735L316.611 301.631ZM315.679 302.15C315.545 302.292 315.419 302.368 315.284 302.443L314.755 301.623C314.957 301.547 315.083 301.397 315.284 301.246L315.679 302.142V302.15ZM315.024 302.669C314.89 302.82 314.823 302.895 314.688 302.971L314.823 303.121C314.89 303.046 315.024 302.904 315.083 302.828H315.15L315.217 302.753C315.411 302.611 315.545 302.46 315.746 302.309H315.813L317.199 305.055C317.065 305.131 316.938 305.206 316.871 305.281L317.005 305.432C317.601 304.838 318.391 304.545 319.322 304.545C320.254 304.545 321.17 304.988 321.833 305.658H322.101C321.9 305.441 321.706 305.215 321.438 305.064L322.764 302.318H322.831C323.099 302.544 323.293 302.686 323.561 302.912L323.628 302.987C323.763 303.138 323.889 303.28 324.09 303.431C324.224 303.657 324.418 303.875 324.619 304.101V304.176L324.686 304.252C324.82 304.478 324.947 304.628 325.014 304.846L322.638 306.403C322.504 306.186 322.31 305.884 322.176 305.658V306.027C322.705 306.697 323.099 307.735 323.099 308.773C323.099 309.962 322.638 311 321.975 311.821C321.244 312.566 320.321 313.085 319.33 313.085C318.272 313.085 317.348 312.566 316.618 311.821C315.888 311 315.493 309.97 315.493 308.773C315.493 307.81 315.754 306.914 316.283 306.244L316.149 306.094C316.082 306.169 316.015 306.32 315.955 306.387L313.571 304.829C313.705 304.536 313.899 304.235 314.1 304.009V303.933C314.167 303.933 314.167 303.858 314.234 303.791L314.1 303.64C314.033 303.716 314.033 303.791 313.966 303.867L313.236 303.197C313.37 303.121 313.437 303.046 313.504 302.904V302.535L313.705 302.46C313.772 302.309 313.906 302.309 314.04 302.309C314.174 302.167 314.301 302.091 314.502 301.941L315.031 302.686L315.024 302.669ZM313.891 304.009H313.824L313.228 303.414L313.891 303.933V304.009ZM313.765 304.151C313.631 304.302 313.504 304.528 313.437 304.746L313.042 304.453L312.647 304.227C312.781 304.009 312.908 303.707 313.042 303.557H313.109L313.772 304.151H313.765ZM313.236 305.047C313.169 305.198 313.102 305.34 313.042 305.566L312.185 305.122C312.252 304.972 312.386 304.754 312.446 304.603L313.236 305.047ZM312.841 305.935C312.774 306.161 312.707 306.378 312.647 306.604L311.857 306.311H311.79C311.857 306.01 311.992 305.792 312.051 305.499L312.841 305.943V305.935ZM312.573 306.973C312.506 307.124 312.506 307.274 312.439 307.492L311.582 307.341C311.649 307.124 311.649 306.897 311.716 306.671V306.747L312.573 306.973ZM312.439 307.651L311.649 307.576V307.5L312.439 307.651ZM312.439 307.869C312.371 308.086 312.372 308.312 312.372 308.539H311.515C311.515 308.245 311.515 308.019 311.582 307.726L312.439 307.877V307.869ZM312.379 308.982C312.379 309.133 312.379 309.351 312.446 309.501L311.522 309.577V308.982H312.379ZM312.439 309.87C312.506 310.096 312.506 310.389 312.573 310.615L311.716 310.841C311.649 310.548 311.582 310.322 311.582 310.029L312.439 309.878V309.87ZM312.64 310.983C312.707 311.134 312.774 311.285 312.833 311.427L311.977 311.796V311.871C311.91 311.645 311.843 311.427 311.775 311.201H311.843L312.632 310.975L312.64 310.983ZM312.908 311.653L312.178 312.022V311.946L312.908 311.653ZM312.967 311.804C313.035 312.03 313.102 312.248 313.228 312.474L312.439 312.993C312.304 312.767 312.237 312.474 312.111 312.248L312.178 312.172L312.967 311.804ZM313.429 312.851C313.496 313.001 313.563 313.144 313.69 313.219L312.9 313.813C312.833 313.663 312.699 313.512 312.64 313.294L313.429 312.851ZM313.891 313.512C314.025 313.738 314.159 313.889 314.294 314.106L313.698 314.852H313.631C313.496 314.634 313.303 314.408 313.169 314.182L313.899 313.512H313.891ZM314.562 314.408C314.688 314.483 314.756 314.634 314.89 314.701L314.361 315.521H314.294C314.159 315.371 314.033 315.22 313.891 315.078L314.554 314.408H314.562ZM315.15 315.002C315.351 315.153 315.478 315.228 315.679 315.371L315.284 316.267H315.217C315.016 316.116 314.823 315.974 314.621 315.748L315.15 315.002ZM316.007 315.597C316.141 315.672 316.268 315.748 316.402 315.823L316.074 316.71C315.873 316.635 315.679 316.56 315.545 316.417L316.007 315.597ZM316.737 315.965C316.938 316.041 317.132 316.116 317.333 316.191L317.139 317.154C316.871 317.079 316.611 317.003 316.409 316.928L316.745 315.965H316.737ZM317.467 316.267L317.333 317.079H317.266L317.467 316.267ZM317.661 316.342C317.795 316.342 317.989 316.417 318.123 316.417L317.989 317.38C317.788 317.38 317.594 317.305 317.46 317.305L317.654 316.342H317.661ZM318.257 316.484H318.324L318.19 317.297L318.257 316.484ZM318.458 316.484C318.659 316.484 318.92 316.56 319.121 316.56V317.523C318.853 317.523 318.592 317.523 318.324 317.447L318.458 316.484ZM319.449 316.56C319.583 316.56 319.777 316.56 319.911 316.484L320.045 317.447V317.523H319.449V316.56ZM320.306 316.484C320.507 316.409 320.701 316.409 320.902 316.334L321.103 317.297C320.902 317.372 320.641 317.372 320.373 317.447L320.306 316.484ZM321.103 316.267L321.297 317.079H321.23L321.095 316.267H321.103ZM321.23 316.191C321.364 316.191 321.498 316.116 321.691 316.041L322.019 316.936V317.012C321.818 317.087 321.691 317.163 321.49 317.163L321.222 316.2L321.23 316.191ZM321.826 315.965H321.893L322.153 316.786L321.826 315.965ZM322.027 315.89C322.228 315.815 322.422 315.664 322.556 315.597L323.018 316.417V316.493C322.816 316.568 322.556 316.719 322.354 316.861V316.786L322.027 315.898V315.89ZM322.883 315.371C323.018 315.295 323.152 315.22 323.278 315.078L323.807 315.898C323.673 316.041 323.479 316.116 323.345 316.267L322.883 315.371ZM323.547 314.852C323.748 314.701 323.874 314.559 324.008 314.408L324.671 315.078C324.47 315.295 324.277 315.521 324.075 315.672L323.547 314.852ZM324.277 314.106C324.403 313.956 324.47 313.813 324.537 313.738L325.267 314.333C325.2 314.483 325.066 314.634 324.94 314.776L324.284 314.106H324.277ZM324.798 313.37C324.932 313.219 325.066 313.001 325.126 312.775L325.916 313.294C325.781 313.587 325.655 313.813 325.521 314.039H325.454L324.791 313.37H324.798ZM325.334 312.474C325.402 312.323 325.469 312.172 325.528 312.03L326.392 312.398C326.258 312.616 326.191 312.775 326.124 312.993H326.057L325.327 312.474H325.334ZM325.662 311.653C325.729 311.427 325.856 311.209 325.856 310.983L326.72 311.209H326.787C326.653 311.503 326.586 311.804 326.527 312.022L325.662 311.653ZM325.99 310.615C325.99 310.464 326.057 310.247 326.057 310.096L326.981 310.247C326.914 310.397 326.914 310.615 326.847 310.841L325.983 310.615H325.99ZM326.124 309.87L326.921 310.021H326.854L326.124 309.87ZM326.124 309.652C326.191 309.434 326.191 309.208 326.191 308.982H327.055C327.055 309.275 327.055 309.501 326.988 309.794L326.132 309.644L326.124 309.652ZM326.191 308.539C326.191 308.396 326.191 308.245 326.124 308.095L327.048 307.944V308.539H326.184H326.191ZM326.124 307.869V307.793L326.921 307.718V307.793L326.124 307.869ZM326.124 307.651C326.057 307.425 326.057 307.207 325.99 306.981L326.854 306.755V306.68C326.921 306.973 326.988 307.274 326.988 307.576L326.132 307.651H326.124ZM325.923 306.604C325.856 306.378 325.789 306.236 325.722 306.085L326.586 305.717C326.653 305.943 326.72 306.085 326.72 306.311L325.923 306.604ZM325.662 305.859L326.392 305.491V305.566L325.662 305.868V305.859ZM325.595 305.717C325.528 305.499 325.461 305.273 325.334 305.047L326.065 304.603H326.132C326.266 304.829 326.333 305.122 326.467 305.348L325.603 305.717H325.595ZM325.133 304.746C325.066 304.595 324.999 304.453 324.932 304.302L325.595 303.707C325.729 303.858 325.856 304.076 325.923 304.227L325.133 304.746ZM324.671 303.933C324.537 303.791 324.403 303.64 324.277 303.414L324.932 302.745C325.066 302.971 325.26 303.188 325.394 303.339V303.414L324.671 303.933ZM324.008 303.188C323.941 303.038 323.807 302.895 323.673 302.82L324.202 302.008C324.336 302.158 324.53 302.301 324.664 302.451L324.001 303.197L324.008 303.188ZM323.547 302.669L324.075 301.999L323.614 302.669H323.547ZM323.412 302.594C323.211 302.443 323.085 302.292 322.883 302.15L323.345 301.33C323.546 301.48 323.74 301.631 323.941 301.782L323.412 302.602V302.594ZM322.556 301.999C322.422 301.849 322.295 301.773 322.161 301.706L322.489 300.81C322.69 300.886 322.816 300.961 323.018 301.103L322.556 301.999ZM321.826 301.556C321.632 301.48 321.431 301.405 321.23 301.33L321.498 300.367C321.699 300.442 321.96 300.584 322.161 300.66L321.833 301.556H321.826ZM320.902 301.254C320.768 301.179 320.574 301.179 320.44 301.103L320.574 300.141C320.775 300.216 320.969 300.216 321.103 300.291L320.902 301.254ZM320.306 301.112H320.239L320.373 300.224L320.306 301.112ZM320.112 301.112C319.911 301.036 319.65 301.036 319.449 301.036V300.074H320.239L320.112 301.112ZM316.074 302.15C316.275 301.999 316.402 301.924 316.603 301.782H316.67L316.871 301.706C317.072 301.631 317.199 301.556 317.4 301.48H317.467L317.601 301.405H317.735C317.937 301.33 318.13 301.33 318.332 301.254H318.659V301.179H319.121V304.302C318.525 304.377 317.929 304.52 317.467 304.821L316.082 302.15H316.074ZM319.449 301.179C319.65 301.179 319.844 301.179 320.045 301.254H320.373C320.574 301.33 320.701 301.33 320.835 301.405H320.902L321.103 301.48H321.17C321.364 301.556 321.565 301.631 321.766 301.706V301.782H321.833C321.9 301.782 321.967 301.857 322.034 301.857L322.101 301.932C322.235 301.932 322.362 302.083 322.496 302.158L321.11 304.829C320.581 304.536 320.052 304.386 319.456 304.31V301.187L319.449 301.179ZM325.2 305.198C325.335 305.424 325.402 305.642 325.461 305.868L325.528 305.943C325.528 306.018 325.528 306.094 325.595 306.094V306.169C325.662 306.387 325.729 306.688 325.796 306.981C325.93 307.5 325.99 308.019 325.99 308.614H323.211C323.211 307.944 323.018 307.274 322.816 306.755L325.193 305.198H325.2ZM325.99 308.982C325.99 309.208 325.99 309.426 325.923 309.652C325.923 309.954 325.856 310.247 325.789 310.548C325.655 311.218 325.454 311.804 325.193 312.398L322.749 310.841C323.018 310.247 323.144 309.652 323.211 308.982H325.99ZM324.999 312.7C324.932 312.926 324.798 313.144 324.671 313.37L324.537 313.52L324.47 313.596C324.336 313.746 324.277 313.897 324.21 313.964L324.075 314.039L324.008 314.19L323.874 314.266H323.941C323.74 314.416 323.606 314.559 323.479 314.709H323.412V314.785L323.345 314.86C323.144 315.011 323.018 315.086 322.816 315.228L321.431 312.482C321.632 312.331 321.893 312.114 322.094 311.888C322.295 311.662 322.489 311.444 322.623 311.142L324.999 312.7ZM322.489 315.446C322.354 315.521 322.161 315.664 321.96 315.739V315.664L321.826 315.739L321.759 315.815L321.624 315.89C321.49 315.89 321.356 315.965 321.222 316.032H321.155C321.088 316.032 320.954 316.108 320.887 316.108H320.82C320.552 316.183 320.358 316.258 320.097 316.258H319.963C319.762 316.334 319.635 316.334 319.434 316.334V313.211C320.03 313.135 320.559 312.993 321.088 312.691L322.474 315.438L322.489 315.446ZM319.121 316.342C318.92 316.342 318.719 316.342 318.525 316.267H318.197C317.996 316.191 317.87 316.191 317.735 316.116C317.408 316.041 317.08 315.898 316.745 315.748H316.678C316.484 315.672 316.283 315.53 316.082 315.455L317.467 312.708C317.996 313.01 318.525 313.152 319.121 313.227V316.35V316.342ZM315.746 315.22C315.612 315.145 315.419 314.994 315.217 314.852H315.284L315.217 314.776L315.016 314.701V314.626H314.949C314.882 314.475 314.748 314.4 314.621 314.257H314.688L314.621 314.182L314.487 314.031L314.353 313.956C314.219 313.805 314.092 313.663 313.958 313.437L313.824 313.211L313.757 313.135C313.69 312.985 313.623 312.842 313.556 312.691H313.489L315.933 311.134C316.126 311.427 316.26 311.653 316.529 311.879C316.73 312.105 316.923 312.323 317.192 312.549L315.739 315.22H315.746ZM313.37 312.398C313.236 312.172 313.169 311.955 313.102 311.653H313.035C312.967 311.427 312.9 311.134 312.833 310.908C312.766 310.757 312.766 310.682 312.766 310.54C312.632 310.021 312.565 309.501 312.565 308.974H315.344C315.344 309.644 315.545 310.238 315.806 310.833L313.362 312.39L313.37 312.398ZM312.573 308.614C312.573 308.396 312.573 308.095 312.64 307.877V307.509C312.707 307.358 312.707 307.14 312.774 306.99C312.774 306.839 312.774 306.763 312.841 306.697V306.621C312.908 306.395 312.975 306.177 313.042 306.027L313.109 305.876V305.801C313.109 305.725 313.176 305.725 313.176 305.65C313.243 305.508 313.31 305.357 313.377 305.206L315.821 306.764C315.56 307.358 315.359 307.952 315.359 308.622H312.58L312.573 308.614ZM328.24 298.659H319.315C324.21 298.659 328.24 303.188 328.24 308.765V298.659ZM321.23 300.367H321.297L321.103 301.254L321.237 300.367H321.23ZM324.671 302.669H324.739L324.21 303.339L324.142 303.264L324.671 302.669ZM324.739 314.852L324.671 314.927L324.142 314.257H324.21L324.739 314.852ZM313.891 314.927L313.824 314.852L314.353 314.257H314.42L313.891 314.927ZM317.266 300.367H317.333L317.467 301.254L317.266 300.367ZM325.461 303.557L324.798 304.151V304.076L325.461 303.557ZM316.275 316.786L316.208 316.71L316.536 315.898L316.275 316.786ZM314.495 315.597V315.521L315.024 314.852L314.495 315.597ZM314.688 301.849V301.773L315.15 302.518V302.594L314.688 301.849ZM316.409 300.735L316.745 301.556L316.678 301.631L316.409 300.735ZM319.315 298.659H310.323V308.765C310.323 303.197 314.353 298.659 319.315 298.659ZM310.33 308.756V318.862H319.322C314.368 318.862 310.33 314.333 310.33 308.756ZM319.315 318.862H328.24V308.756C328.24 314.324 324.21 318.862 319.315 318.862ZM319.315 318.343C314.621 318.343 310.785 314.031 310.785 308.756C310.785 303.481 314.621 299.253 319.315 299.253C324.008 299.253 327.778 303.557 327.778 308.756C327.778 313.956 323.949 318.343 319.315 318.343ZM326.854 317.749C326.459 317.749 326.191 317.456 326.191 316.936C326.191 316.568 326.459 316.267 326.854 316.267C327.182 316.267 327.517 316.56 327.517 316.936C327.517 317.456 327.19 317.749 326.854 317.749ZM326.854 301.112C326.459 301.112 326.191 300.743 326.191 300.367C326.191 299.923 326.459 299.621 326.854 299.621C327.182 299.621 327.517 299.915 327.517 300.367C327.517 300.735 327.19 301.112 326.854 301.112ZM311.85 301.112C311.455 301.112 311.187 300.743 311.187 300.367C311.187 299.923 311.455 299.621 311.85 299.621C312.245 299.621 312.513 299.915 312.513 300.367C312.513 300.735 312.252 301.112 311.85 301.112ZM311.85 317.749C311.455 317.749 311.187 317.456 311.187 316.936C311.187 316.568 311.455 316.267 311.85 316.267C312.245 316.267 312.513 316.56 312.513 316.936C312.513 317.456 312.252 317.749 311.85 317.749ZM328.501 298.357V319.155H310.062V298.357H328.501ZM328.568 296.13H327.316V297.612H328.568V296.13ZM311.187 296.13H309.935V297.612H311.187V296.13ZM312.774 296.13H311.515V297.612H312.774V296.13ZM314.361 296.13H313.102V297.612H314.361V296.13ZM315.88 296.13H314.688V297.612H315.88V296.13ZM317.467 296.13H316.208V297.612H317.467V296.13ZM319.054 296.13H317.795V297.612H319.054V296.13ZM320.634 296.13H319.382V297.612H320.634V296.13ZM322.228 296.13H320.969V297.612H322.228V296.13ZM323.807 296.13H322.556V297.612H323.807V296.13ZM325.394 296.13H324.142V297.612H325.394V296.13ZM326.981 296.13H325.722V297.612H326.981V296.13ZM309.205 321.315H309.473V296.13H309.205V321.315ZM307.879 321.315H308.207V296.13H307.879V321.315ZM308.542 321.315H308.87V296.13H308.542V321.315ZM329.097 321.315H329.492V296.13H329.097V321.315ZM330.423 321.315H330.751V296.13H330.423V321.315ZM329.76 321.315H330.088V296.13H329.76V321.315Z" fill="white"/>
<path fill-rule="evenodd" clip-rule="evenodd" d="M574.715 319.088V318.05L572.003 316.568V321.692L574.715 319.088ZM515.033 291.449H534.798V297.913H515.033V291.449ZM534.791 298.952V308.831H515.026V298.952H534.791ZM534.791 310.397V328.148H515.026V310.397H534.791ZM520.054 293.459H523.422V294.271H520.054V293.459ZM531.624 302.15V306.68H528.451V302.15C528.451 301.329 529.248 300.66 530.037 300.66C530.961 300.66 531.624 301.329 531.624 302.15ZM526.596 302.15V306.68H523.422V302.15C523.422 301.329 524.085 300.66 525.009 300.66C525.865 300.66 526.596 301.329 526.596 302.15ZM521.507 302.15V306.68H518.333V302.15C518.333 301.329 518.997 300.66 519.92 300.66C520.777 300.66 521.507 301.329 521.507 302.15ZM526.469 315.371H529.836V316.116H526.469V315.371ZM522.297 315.521H525.664V316.267H522.297V315.521ZM524.681 316.484H528.048V317.296H524.681V316.484ZM526.663 317.899H530.03V318.72H526.663V317.899ZM522.699 317.899H526.067V318.72H522.699V317.899ZM520.122 325.477H523.422V326.289H520.122V325.477ZM518.468 324.505H521.842V325.326H518.468V324.505ZM516.814 323.467H520.181V324.212H516.814V323.467ZM529.635 323.241H533.003V324.062H529.635V323.241ZM527.72 292.563H531.088V293.384H527.72V292.563ZM522.431 295.318H525.798V296.138H522.431V295.318ZM489.182 349.247H522.632V378.661H489.182V349.247ZM522.632 379.925V411.415H489.182V379.925H522.632ZM513.774 403.177H519.458V404.516H513.774V403.177ZM508.418 389.73H514.102V391.069H508.418V389.73ZM501.482 390.031H507.166V391.371H501.482V390.031ZM505.445 391.739H511.129V393.071H505.445V391.739ZM508.753 394.117H514.437V395.457H508.753V394.117ZM502.078 394.117H507.695V395.457H502.078V394.117ZM497.578 406.961H503.262V408.301H497.578V406.961ZM494.873 405.253H500.558V406.593H494.873V405.253ZM492.162 403.47H497.846V404.885H492.162V403.47ZM499.962 367.441V375.094H494.605V367.441C494.605 366.026 495.797 364.837 497.317 364.837C498.837 364.837 499.962 366.026 499.962 367.441ZM517.276 367.441V375.094H511.919V367.441C511.919 366.026 513.044 364.837 514.564 364.837C516.084 364.837 517.276 366.026 517.276 367.441ZM508.619 367.441V375.094H503.262V367.441C503.262 366.026 504.454 364.837 505.907 364.837C507.36 364.837 508.619 366.026 508.619 367.441ZM497.511 352.739H503.195V354.07H497.511V352.739ZM510.6 351.173H516.285V352.513H510.6V351.173ZM501.541 355.778H507.226V357.193H501.541V355.778ZM489.182 359.345H522.632V360.684H489.182V359.345ZM525.009 276.152L518.401 282.39H532.019L525.016 276.152H525.009ZM530.693 282.616V290.939H519.786V282.616H530.693ZM524.018 285.806H526.26V283.353H524.018V285.806ZM581.785 312.7L572.465 321.541H591.768L581.785 312.7ZM589.652 322.136V333.95H595.538V385.284H567.839V333.95H574.514V322.136H589.652ZM580.399 326.138H583.506V322.647H580.399V326.138ZM574.782 336.839H579.476V337.877H574.782V336.839ZM591.105 349.021V355.259H586.672V349.021C586.672 347.832 587.596 346.861 588.855 346.861C590.047 346.861 591.105 347.824 591.105 349.021ZM583.968 349.021V355.259H579.535V349.021C579.535 347.832 580.526 346.861 581.718 346.861C582.91 346.861 583.968 347.824 583.968 349.021ZM576.831 349.021V355.259H572.398V349.021C572.398 347.832 573.389 346.861 574.581 346.861C575.84 346.861 576.831 347.824 576.831 349.021ZM583.774 367.374H588.468V368.488H583.774V367.374ZM578.023 367.592H582.716V368.706H578.023V367.592ZM581.323 369.007H586.084V370.196H581.323V369.007ZM584.102 371.008H588.796V372.122H584.102V371.008ZM578.485 371.008H583.245V372.122H578.485V371.008ZM574.849 381.633H579.543V382.747H574.849V381.633ZM572.599 380.218H577.293V381.332H572.599V380.218ZM570.349 378.812H575.043V379.925H570.349V378.812ZM588.267 378.51H592.96V379.548H588.267V378.51ZM585.555 335.574H590.248V336.613H585.555V335.574ZM578.15 339.367H582.843V340.481H578.15V339.367ZM567.839 342.264H595.538V343.746H567.839V342.264ZM567.839 358.307H595.538V361.43H567.839V358.307ZM505.974 323.543L494.672 334.168H518.073L505.974 323.543ZM515.555 334.762V348.209H497.183V334.762H515.555ZM504.32 339.811H508.09V335.574H504.32V339.811ZM523.489 369.97L524.413 369.451V377.397L525.933 376.651V368.706L529.106 366.998V374.943L530.559 374.131V366.185L533.733 364.477V372.423L535.252 371.603V363.657L538.426 361.949V369.895L539.879 369.082V361.137L543.053 359.429V367.374L544.572 366.629V358.608L547.746 356.9V364.846L549.199 364.101V356.155L552.373 354.371V362.317L553.892 361.572V353.626L556.999 351.918V359.864L558.519 359.043V351.098L561.693 349.389V357.335L563.145 356.515V348.569L566.319 346.861V354.815L566.982 354.522V381.265L523.489 404.742V369.978V369.97ZM572.003 321.684V323.316L570.752 322.647V315.814L567.973 314.324V321.232L566.721 320.486V313.654L564.009 312.164V319.071L562.683 318.326V311.494L560.039 310.012V316.92L558.72 316.174V309.342L556.008 307.936V314.692L554.757 314.023V307.19L551.978 305.7V312.532L550.719 311.862V305.03L548.007 303.54V310.372L546.755 309.702V302.87L543.976 301.38V308.212L542.717 307.542V300.71L540.006 299.228V306.06L538.687 305.39V298.558L536.042 297.076V303.908L535.714 303.766V326.791L566.982 343.654V332.962H573.985V321.667H572.003V321.684Z" fill="white"/>
<path fill-rule="evenodd" clip-rule="evenodd" d="M213.889 289.968L212.831 301.112L177.734 296.809L178.792 285.664L213.889 289.976V289.968ZM185.929 391.665C204.242 391.665 220.036 399.836 226.45 411.424H145.282C151.823 399.836 167.558 391.665 185.929 391.665ZM170.329 361.581L207.609 366.186L207.415 368.715L170.068 364.11L170.337 361.581H170.329ZM184.737 268.048L211.572 271.313L211.773 269.086L184.939 265.812L184.737 268.04V268.048ZM178.062 281.872L215.409 286.401L215.141 289.005L177.861 284.4L178.062 281.872ZM176.542 297.763L213.822 302.368L213.621 304.972L176.274 300.367L176.542 297.763ZM175.023 313.739L212.302 318.344L212.042 320.872L174.762 316.343L175.023 313.739ZM173.436 329.639L210.783 334.244L210.455 336.848L173.175 332.243L173.443 329.639H173.436ZM171.916 345.606L209.196 350.211L208.928 352.815L171.648 348.21L171.909 345.614L171.916 345.606ZM208.071 284.769L209.33 271.992L186.794 269.245L185.535 282.022L208.071 284.769ZM192.739 275.558L192.344 280.088L188.448 279.644L188.842 275.115C188.976 273.85 189.967 272.888 191.025 273.03C192.083 273.181 192.88 274.294 192.746 275.558H192.739ZM206.156 277.267L205.694 281.796L201.798 281.277L202.26 276.747C202.394 275.483 203.385 274.596 204.443 274.738C205.501 274.813 206.298 275.927 206.164 277.267H206.156ZM199.481 276.446L199.019 280.976L195.123 280.457L195.585 275.927C195.652 274.663 196.643 273.7 197.767 273.926C198.825 274.001 199.555 275.115 199.488 276.446H199.481ZM182.428 288.335L181.705 295.687L179.388 295.394L180.118 288.042C180.185 287.448 180.714 287.004 181.377 287.071C182.041 287.146 182.502 287.666 182.435 288.335H182.428ZM205.098 356.306L204.301 363.666L202.051 363.364L202.781 356.013C202.848 355.419 203.377 354.975 204.04 355.05C204.636 355.201 205.098 355.72 205.098 356.314V356.306ZM201.858 355.854L201.127 363.289L198.818 362.988L199.548 355.636C199.615 355.042 200.144 354.598 200.807 354.673C201.47 354.749 201.932 355.343 201.865 355.862L201.858 355.854ZM198.624 355.561L197.894 362.845L195.644 362.619L196.307 355.192C196.374 354.598 196.97 354.221 197.626 354.305C198.222 354.38 198.684 354.899 198.617 355.569L198.624 355.561ZM195.451 355.117L194.72 362.468L192.411 362.175L193.141 354.824C193.208 354.23 193.737 353.853 194.393 353.853C195.056 354.004 195.518 354.523 195.451 355.117ZM192.21 354.665L191.48 362.092L189.23 361.799L189.893 354.447C189.96 353.853 190.556 353.409 191.152 353.476C191.815 353.551 192.277 354.146 192.21 354.665ZM189.036 354.372L188.306 361.648L185.989 361.422L186.652 353.995C186.719 353.401 187.315 353.032 187.971 353.108C188.634 353.183 189.096 353.702 189.029 354.372H189.036ZM185.795 353.928L185.073 361.279L182.756 360.986L183.486 353.702C183.553 353.032 184.149 352.664 184.737 352.664C185.4 352.815 185.862 353.334 185.795 353.928ZM182.562 353.551L181.899 360.903L179.522 360.61L180.253 353.25C180.32 352.655 180.916 352.212 181.571 352.287C182.167 352.362 182.629 352.957 182.562 353.551ZM179.388 353.183L178.658 360.534L176.341 360.241L177.071 352.882C177.138 352.287 177.734 351.843 178.33 351.919C178.926 351.994 179.455 352.513 179.388 353.183ZM176.148 352.739L175.485 360.091L173.108 359.789L173.838 352.513C173.905 351.843 174.434 351.475 175.097 351.475C175.76 351.626 176.222 352.145 176.155 352.739H176.148ZM206.618 340.18L205.955 347.531L203.578 347.238L204.309 339.879C204.376 339.284 204.905 338.916 205.568 338.916C206.231 339.066 206.693 339.586 206.626 340.18H206.618ZM203.444 339.812L202.655 347.163L200.405 346.87L201.135 339.51C201.202 338.916 201.731 338.472 202.394 338.547C202.99 338.623 203.452 339.217 203.452 339.812H203.444ZM200.211 339.435L199.481 346.795L197.164 346.501L197.894 339.075C197.961 338.556 198.49 338.112 199.153 338.187C199.816 338.263 200.278 338.782 200.211 339.443V339.435ZM197.037 338.999L196.248 346.351L193.998 346.133L194.661 338.773C194.795 338.103 195.324 337.735 195.979 337.735C196.575 337.886 197.037 338.405 197.037 338.999ZM193.797 338.623L193.067 345.982L190.757 345.681L191.487 338.33C191.554 337.735 192.083 337.291 192.746 337.358C193.409 337.434 193.871 338.028 193.804 338.623H193.797ZM190.556 338.254L189.826 345.606L187.576 345.304L188.239 337.877C188.306 337.358 188.902 336.906 189.498 336.982C190.161 337.057 190.623 337.576 190.556 338.246V338.254ZM187.382 337.81L186.652 345.162L184.335 344.936L185.065 337.584C185.065 336.915 185.661 336.546 186.324 336.546C186.987 336.697 187.449 337.216 187.382 337.81ZM184.149 337.434L183.419 344.793L181.169 344.492L181.832 337.141C181.899 336.546 182.495 336.102 183.084 336.253C183.747 336.253 184.208 336.848 184.141 337.442L184.149 337.434ZM180.908 337.065L180.245 344.425L177.869 344.124L178.599 336.697C178.666 336.178 179.262 335.734 179.917 335.809C180.513 335.885 181.042 336.404 180.908 337.074V337.065ZM177.734 336.613L177.004 343.973L174.687 343.747L175.417 336.395C175.485 335.726 176.081 335.357 176.677 335.357C177.273 335.508 177.801 336.027 177.734 336.622V336.613ZM208.205 324.062L207.475 331.414L205.165 331.188L205.895 323.761C205.962 323.166 206.491 322.79 207.154 322.865C207.75 322.94 208.279 323.459 208.212 324.054L208.205 324.062ZM204.964 323.694L204.301 331.054L201.925 330.752L202.655 323.401C202.722 322.806 203.318 322.363 203.914 322.438C204.577 322.513 205.039 323.108 204.972 323.702L204.964 323.694ZM201.798 323.317L201.068 330.668L198.751 330.375L199.481 323.024C199.548 322.43 200.077 321.986 200.733 322.061C201.329 322.137 201.79 322.656 201.79 323.325L201.798 323.317ZM198.557 322.873L197.827 330.233L195.51 330.007L196.24 322.656C196.307 321.986 196.836 321.617 197.492 321.693C198.155 321.768 198.617 322.287 198.55 322.882L198.557 322.873ZM195.383 322.505L194.586 329.856L192.336 329.563L192.999 322.212C193.134 321.617 193.663 321.174 194.318 321.249C194.914 321.324 195.376 321.919 195.376 322.513L195.383 322.505ZM192.143 322.137L191.413 329.488L189.103 329.186L189.833 321.835C189.9 321.241 190.429 320.789 191.092 320.864C191.755 320.939 192.217 321.534 192.15 322.128L192.143 322.137ZM188.909 321.76L188.179 329.036L185.929 328.818L186.592 321.467C186.66 320.797 187.256 320.428 187.911 320.495C188.507 320.571 188.969 321.09 188.902 321.76H188.909ZM185.736 321.316L185.006 328.667L182.696 328.374L183.426 321.023C183.426 320.428 184.022 319.976 184.685 320.127C185.348 320.202 185.81 320.722 185.743 321.316H185.736ZM182.495 320.939L181.765 328.291L179.515 327.997L180.178 320.638C180.245 320.043 180.841 319.6 181.437 319.675C182.1 319.75 182.562 320.345 182.495 320.939ZM179.321 320.571L178.591 327.855L176.215 327.637L176.945 320.278C177.012 319.608 177.608 319.24 178.263 319.315C178.926 319.39 179.388 319.909 179.321 320.571ZM209.725 308.02L209.062 315.296L206.745 315.078L207.475 307.652C207.475 307.057 208.071 306.68 208.667 306.756C209.33 306.831 209.859 307.35 209.725 308.02ZM206.551 307.576L205.821 314.928L203.504 314.634L204.234 307.358C204.301 306.689 204.83 306.32 205.493 306.32C206.089 306.471 206.618 306.99 206.551 307.585V307.576ZM203.31 307.124L202.647 314.551L200.271 314.258L201.068 306.898C201.068 306.304 201.664 305.86 202.252 306.01C202.915 306.01 203.377 306.605 203.31 307.124ZM200.144 306.831L199.414 314.191L197.104 313.898L197.835 306.463C197.902 305.943 198.431 305.5 199.094 305.575C199.69 305.65 200.151 306.17 200.151 306.839L200.144 306.831ZM196.903 306.379L196.173 313.739L193.856 313.446L194.579 306.161C194.646 305.491 195.175 305.123 195.838 305.123C196.501 305.274 196.963 305.793 196.896 306.387L196.903 306.379ZM193.73 306.01L192.932 313.37L190.683 313.077L191.346 305.717C191.48 305.123 192.009 304.679 192.664 304.83C193.26 304.83 193.722 305.424 193.722 306.019L193.73 306.01ZM190.489 305.642L189.759 313.002L187.442 312.7L188.172 305.349C188.239 304.755 188.768 304.311 189.431 304.386C190.094 304.461 190.556 304.981 190.489 305.65V305.642ZM187.256 305.198L186.525 312.55L184.276 312.248L184.939 304.972C185.073 304.302 185.602 303.926 186.265 303.926C186.861 304.076 187.323 304.595 187.256 305.19V305.198ZM184.082 304.822L183.352 312.173L181.035 311.88L181.765 304.528C181.832 303.934 182.361 303.49 183.024 303.633C183.687 303.633 184.149 304.227 184.082 304.822ZM180.841 304.453L180.111 311.804L177.861 311.511L178.524 304.16C178.591 303.566 179.187 303.122 179.783 303.197C180.446 303.273 180.908 303.792 180.841 304.461V304.453ZM211.312 291.894L210.581 299.254L208.272 298.952L209.002 291.525C209.069 291.006 209.665 290.563 210.321 290.638C210.917 290.713 211.379 291.232 211.312 291.902V291.894ZM208.071 291.45L207.408 298.81L205.091 298.584L205.821 291.232C205.821 290.563 206.417 290.186 207.013 290.186C207.676 290.337 208.205 290.856 208.071 291.45ZM204.905 291.082L204.174 298.433L201.858 298.14L202.588 290.789C202.655 290.194 203.184 289.75 203.847 289.893C204.51 289.893 204.972 290.487 204.905 291.082ZM201.664 290.713L201.001 298.065L198.624 297.772L199.414 290.412C199.414 289.817 200.01 289.374 200.606 289.449C201.269 289.524 201.798 290.043 201.664 290.713ZM198.49 290.261L197.76 297.613L195.451 297.395L196.181 290.035C196.248 289.365 196.777 288.997 197.44 288.997C198.036 289.148 198.498 289.667 198.498 290.261H198.49ZM195.249 289.893L194.519 297.244L192.202 296.951L192.932 289.591C192.999 288.997 193.528 288.553 194.191 288.704C194.855 288.704 195.316 289.298 195.249 289.893ZM192.076 289.524L191.346 296.876L189.029 296.583L189.759 289.223C189.826 288.628 190.355 288.185 191.018 288.26C191.614 288.335 192.076 288.855 192.076 289.524ZM188.842 289.072L188.112 296.424L185.795 296.206L186.525 288.846C186.592 288.176 187.121 287.808 187.784 287.883C188.448 287.959 188.909 288.478 188.842 289.072ZM185.669 288.704L184.872 296.055L182.629 295.754L183.292 288.402C183.426 287.808 183.955 287.364 184.611 287.507C185.207 287.507 185.669 288.101 185.669 288.695V288.704ZM212.369 305.935L211.312 317.004L176.215 312.692L177.273 301.623L212.369 305.927V305.935ZM210.85 321.91L209.725 332.979L174.628 328.667L175.753 317.598L210.85 321.91ZM209.263 337.877L208.205 348.946L173.108 344.634L174.166 333.565L209.263 337.877ZM207.743 353.777L206.618 364.922L171.588 360.61L172.646 349.465L207.743 353.769V353.777ZM206.156 369.744L203.906 393.222C203.377 393.071 202.848 392.92 202.252 392.703L203.973 375.538C204.107 373.83 202.781 372.348 200.934 372.047C199.086 371.821 197.499 373.01 197.365 374.793L195.778 391.288C195.182 391.212 194.653 391.137 194.057 391.062L195.644 374.567C195.778 372.859 194.452 371.302 192.672 371.076C190.884 370.85 189.237 372.039 189.103 373.755L187.449 390.543C186.92 390.467 186.391 390.467 185.929 390.467H185.728L187.382 373.529C187.516 371.821 186.19 370.264 184.41 370.037C182.562 369.811 180.975 371.009 180.774 372.708L179.053 390.836C178.457 390.911 177.861 390.978 177.265 391.053L179.053 372.482C179.254 370.85 177.861 369.217 176.081 368.991C174.293 368.773 172.646 369.954 172.512 371.737L170.463 392.46C169.8 392.611 169.078 392.828 168.414 393.054L171.059 365.424L206.156 369.728V369.744Z" fill="white"/>
<path fill-rule="evenodd" clip-rule="evenodd" d="M440.272 408.82L414.957 409.113L418.332 404.508L419.591 402.876L420.388 401.762L421.64 400.129L422.429 399.016L423.621 397.458L440.347 374.877L457.199 397.09C457.064 397.241 456.863 397.458 456.737 397.609L467.383 386.465C469.498 388.55 471.614 390.626 473.73 392.627C475.183 390.032 477.694 386.758 480.867 387.135C486.35 387.352 487.148 396.864 487.148 396.864L484.235 396.939L484.302 398.798C485.36 399.987 486.149 401.469 486.619 403.102C486.686 403.177 486.686 403.252 486.753 403.328L486.954 403.621L487.021 403.847C487.155 404.148 487.222 404.441 487.416 404.818L475.719 404.894C479.623 404.894 483.519 404.818 487.416 404.818L487.215 404.45L487.08 404.081L487.013 403.855C487.148 404.157 487.215 404.45 487.408 404.827C487.542 405.27 488.004 406.535 488.071 406.978L494.218 407.28C495.208 407.573 495.737 407.506 496.4 411.14L477.366 411.29C477.433 411.659 468.374 411.14 468.374 411.14L449.071 410.922C449.071 410.922 449.071 409.582 448.936 408.988L440.28 408.837L440.272 408.82ZM458.584 400.28C458.852 400.355 459.113 400.506 459.441 400.649C459.113 400.498 458.845 400.355 458.584 400.28ZM467.04 408.527C466.839 408.301 466.578 408.159 466.31 408.008C466.571 408.159 466.839 408.301 467.04 408.527ZM486.738 403.328C486.671 403.252 486.671 403.177 486.604 403.102L486.738 403.328Z" fill="white"/>
<path fill-rule="evenodd" clip-rule="evenodd" d="M476.823 358.157V360.384H466.706V372.34H471.071L468.032 373.454V411.416H461.357V373.529L458.25 372.34H462.675V360.384H429.031V372.34H433.464L430.424 373.454V411.416H423.682V373.529L420.709 372.34H425.068V360.384H414.958V358.157H412.246V356.524H425.068V350.06H422.028V347.531C417.864 346.862 413.572 346.049 409.274 345.078V339.577C407.687 339.284 406.033 338.907 404.379 338.464V334.001C402.531 333.632 400.617 333.18 398.762 332.745V328.734C430.551 334.754 461.953 334.378 492.952 328.734V332.745C491.104 333.189 489.249 333.632 487.335 334.001V338.464C485.748 338.907 484.094 339.284 482.448 339.653V345.078C478.283 346.125 473.984 347.012 469.693 347.682V350.06H466.713V356.524H479.475V358.157H476.83H476.823ZM432.078 348.804V350.068H429.039V356.532H442.851V349.399C439.282 349.323 435.714 349.105 432.078 348.804ZM462.683 350.06H459.643V348.871C456.134 349.239 452.506 349.39 448.937 349.466V356.524H462.683V350.06Z" fill="white"/>
<path fill-rule="evenodd" clip-rule="evenodd" d="M399.29 200.507C397.442 202.441 397.971 202.215 393.673 200.8C389.903 199.46 391.691 199.017 388.316 201.168C385.276 203.178 380.315 205.179 378.005 206.736C378.87 208.888 386.267 215.947 388.055 218.844C387.392 219.212 386.863 219.513 386.141 219.882C385.016 220.476 385.284 220.476 383.958 219.589C381.052 217.73 371.732 211.785 369.877 210.898C367.434 212.087 360.952 215.804 358.71 215.653C357.652 215.578 355.931 215.285 356.266 213.795C357.123 210.153 362.941 208.151 366.711 206.293C368.231 205.547 367.836 205.623 368.164 203.764C368.566 201.763 371.077 187.203 371.665 186.457C371.926 186.231 373.975 185.268 374.377 185.042C374.578 186.382 374.705 187.864 374.772 189.279L375.435 197.526C375.435 198.866 375.636 200.423 375.83 201.688C377.551 200.725 379.264 199.904 381.052 198.941C389.91 194.186 388.324 197.384 390.372 192.034C391.564 189.061 391.564 187.278 394.142 187.722C393.68 193.666 395.133 197.376 399.297 200.499L399.29 200.507ZM324.075 142.935C326.459 143.756 325.922 143.831 329.23 140.407C332.136 137.434 330.355 137.878 334.251 138.255C337.686 138.548 342.975 138.029 345.687 138.33C345.754 140.633 341.724 150.588 341.195 154.08H343.311C344.57 154.08 344.301 154.23 345.225 152.815C347.14 149.692 353.227 139.812 354.612 138.18C357.324 138.104 364.528 138.255 366.51 137.141C367.434 136.547 368.886 135.358 368.03 134.169C365.847 131.347 359.835 132.31 355.737 132.461C354.083 132.461 354.486 132.386 353.42 130.904C352.295 129.271 344.495 117.306 343.705 116.938C343.378 116.862 341.128 116.938 340.733 116.938C341.001 118.277 341.463 119.609 341.925 120.948L344.503 128.743C344.965 129.932 345.426 131.49 345.762 132.679C343.847 132.603 341.925 132.679 339.943 132.679C330.161 132.679 332.873 134.831 328.902 130.971C326.727 128.819 326.064 127.253 323.881 128.894C326.526 134.018 326.66 138.104 324.082 142.935H324.075ZM323.017 135.358C324.008 135.207 324.343 136.915 323.211 137.141L321.624 137.367C320.633 137.594 320.231 135.81 321.355 135.584L323.009 135.358H323.017ZM182.629 254.219C182.1 255.408 180.647 254.512 181.109 253.474L181.504 252.511C182.033 251.397 183.486 252.285 182.957 253.331L182.629 254.227V254.219ZM185.14 248.349C184.611 249.463 183.158 248.651 183.687 247.529L184.417 245.896C184.879 244.783 186.332 245.67 185.87 246.708L185.14 248.341V248.349ZM188.112 241.81C187.65 242.848 186.131 242.112 186.659 240.99L187.449 239.357C187.911 238.319 189.364 239.064 188.902 240.253L188.105 241.81H188.112ZM191.286 235.422C190.69 236.535 189.304 235.497 189.833 234.534L190.69 232.901C191.286 231.788 192.605 232.826 192.076 233.789L191.286 235.422ZM194.586 229.109C193.99 230.147 192.605 229.184 193.201 228.146L194.057 226.588C194.586 225.55 196.039 226.513 195.443 227.551L194.586 229.109ZM198.095 222.871C197.566 223.834 196.114 222.946 196.71 221.908L197.633 220.351C198.162 219.388 199.615 220.275 198.952 221.389L198.095 222.871ZM201.731 216.851C201.068 217.814 199.816 216.7 200.412 215.737L201.336 214.255C201.999 213.292 203.318 214.406 202.655 215.369L201.731 216.851ZM205.56 210.906C204.897 211.869 203.646 210.755 204.301 209.792L205.292 208.31C205.955 207.348 207.207 208.537 206.544 209.424L205.553 210.906H205.56ZM209.397 205.338C208.801 205.707 208.078 205.112 208.138 204.375C208.071 203.932 208.399 203.337 208.868 203.262L209.397 202.516C210.06 201.629 211.379 202.743 210.656 203.705L210.522 203.932L210.783 204.007C211.84 204.451 211.177 206.159 210.187 205.715L209.389 205.347L209.397 205.338ZM213.822 199.544C213.025 200.44 211.908 199.176 212.63 198.28L213.688 196.94C214.478 195.977 215.603 197.309 214.88 198.129L213.822 199.544ZM218.255 194.119C217.525 195.006 216.273 193.75 217.063 192.854L218.188 191.515C218.918 190.627 220.103 191.883 219.38 192.779L218.255 194.119ZM222.814 188.919C221.958 189.74 220.9 188.325 221.689 187.579L222.814 186.315C223.671 185.419 224.729 186.834 224.006 187.655L222.814 188.919ZM227.575 183.87C226.778 184.691 225.66 183.351 226.45 182.531L227.709 181.266C228.499 180.446 229.624 181.861 228.767 182.681L227.575 183.87ZM232.462 179.114C231.732 179.86 230.614 178.52 231.471 177.708L232.73 176.519C233.654 175.698 234.578 177.264 233.721 177.934L232.462 179.123V179.114ZM237.618 174.509C236.694 175.255 235.77 173.764 236.627 173.094L237.886 171.981C238.809 171.236 239.733 172.726 238.877 173.396L237.618 174.509ZM242.84 170.197C242.05 170.867 240.992 169.452 241.916 168.715C242.378 168.347 242.84 167.97 243.302 167.677C244.092 167.007 245.149 168.422 244.226 169.159C243.764 169.528 243.302 169.829 242.84 170.197ZM248.264 166.111C247.34 166.781 246.543 165.149 247.407 164.554L248.792 163.591C249.716 162.921 250.58 164.554 249.649 165.149L248.264 166.111ZM253.814 162.327C252.957 162.921 252.033 161.364 253.024 160.694L254.477 159.807C255.334 159.212 256.257 160.77 255.267 161.439L253.814 162.327ZM259.565 158.76C258.507 159.355 257.844 157.646 258.768 157.127L260.221 156.24C261.212 155.721 261.942 157.429 261.018 157.948L259.565 158.768V158.76ZM265.384 155.495C264.46 156.014 263.663 154.381 264.654 153.787C265.182 153.561 265.644 153.268 266.173 153.041C267.097 152.522 267.827 154.155 266.836 154.674C266.374 154.967 265.846 155.193 265.384 155.495ZM271.329 152.447C270.271 152.891 269.742 151.183 270.666 150.739L272.185 149.994C273.243 149.55 273.772 151.325 272.781 151.702L271.329 152.447ZM277.341 149.692C276.35 150.136 275.754 148.428 276.745 147.984L278.332 147.314C279.256 146.871 279.919 148.579 278.861 149.022L277.341 149.692ZM283.487 147.172C282.496 147.54 281.9 145.832 282.958 145.464C283.487 145.238 284.016 145.02 284.545 144.87C285.469 144.426 286.065 146.134 285.007 146.578C284.478 146.804 284.016 146.946 283.487 147.172ZM289.7 144.945C288.575 145.238 288.248 143.463 289.239 143.161L290.825 142.642C291.883 142.349 292.278 144.124 291.22 144.426L289.7 144.945ZM295.981 142.935C294.923 143.237 294.528 141.453 295.586 141.152L297.173 140.708C298.164 140.415 298.626 142.19 297.568 142.492L295.981 142.935ZM302.328 141.227C301.337 141.52 300.808 139.745 301.933 139.369L303.587 139C304.712 138.774 304.913 140.633 303.915 140.784L302.328 141.227ZM308.676 139.67C307.618 139.896 307.357 138.113 308.415 137.887L310.002 137.594C311.127 137.367 311.387 139.151 310.329 139.377L308.676 139.67ZM315.15 138.406C314.092 138.632 313.764 136.848 314.889 136.622L316.476 136.329C317.534 136.103 317.861 137.962 316.736 138.188L315.15 138.414V138.406ZM95.0468 210.312C93.1918 212.246 93.7282 212.02 89.4295 210.538C85.6598 209.273 87.4478 208.754 84.073 210.981C81.0334 212.916 76.0717 214.992 73.7622 216.549C74.6189 218.701 82.0242 225.759 83.8122 228.656C83.1492 229.025 82.6202 229.251 81.8976 229.619C80.7726 230.289 81.0408 230.289 79.7147 229.393C76.8092 227.535 67.4893 221.514 65.6342 220.702C63.1906 221.891 56.7091 225.609 54.4667 225.458C53.4088 225.383 51.6878 225.014 52.0231 223.524C52.8798 219.882 58.6983 217.881 62.468 216.022C63.9878 215.277 63.5929 215.427 63.9207 213.569C64.3156 211.492 66.8337 197.007 67.4222 196.262C67.6234 196.036 69.7317 194.998 70.134 194.847C70.3352 196.187 70.4693 197.593 70.5289 199.008L71.1919 207.331C71.1919 208.595 71.3931 210.228 71.5868 211.417C73.3077 210.521 75.0212 209.633 76.8092 208.746C85.6673 203.99 84.0134 207.189 86.1292 201.838C87.3212 198.866 87.2541 197.083 89.8989 197.526C89.437 203.471 90.8897 207.18 95.0543 210.303L95.0468 210.312ZM93.1322 202.96C92.1413 203.329 92.5362 205.037 93.6611 204.744L95.1809 204.149C96.1047 203.848 95.7769 202.073 94.652 202.366L93.1322 202.96ZM265.317 242.924C266.173 243.744 267.097 242.254 266.307 241.517L265.644 240.923C264.721 240.102 263.797 241.593 264.586 242.338L265.317 242.932V242.924ZM260.75 238.838C261.606 239.583 262.597 238.168 261.808 237.423L260.489 236.234C259.632 235.489 258.641 236.979 259.498 237.716L260.757 238.829L260.75 238.838ZM255.602 234.383C256.391 235.129 257.449 233.714 256.593 232.901L255.274 231.788C254.417 231.118 253.359 232.533 254.283 233.278L255.602 234.392V234.383ZM250.312 230.071C251.236 230.817 252.1 229.184 251.236 228.589L249.85 227.551C248.927 226.806 248.062 228.447 248.927 229.033L250.312 230.071ZM244.889 225.986C245.812 226.655 246.677 225.098 245.812 224.428L244.427 223.465C243.503 222.795 242.579 224.286 243.503 224.956L244.889 225.994V225.986ZM239.405 222.05C240.262 222.645 241.186 221.163 240.195 220.493L238.809 219.53C237.953 218.936 237.029 220.418 237.953 221.087L239.405 222.05ZM233.721 218.333C234.779 218.927 235.442 217.295 234.578 216.7L233.125 215.813C232.134 215.218 231.404 216.851 232.335 217.445L233.721 218.341V218.333ZM228.037 214.841C229.028 215.36 229.691 213.728 228.767 213.209L227.314 212.313C226.323 211.794 225.593 213.426 226.584 213.945L228.037 214.833V214.841ZM222.151 211.576C223.142 212.095 223.872 210.462 222.874 209.868L221.421 209.123C220.497 208.604 219.7 210.161 220.691 210.755L222.144 211.576H222.151ZM216.273 208.528C217.331 208.972 217.86 207.264 216.869 206.82L215.349 206.075C214.359 205.631 213.763 207.339 214.753 207.783L216.273 208.528ZM204.107 203.178C205.232 203.546 205.56 201.763 204.636 201.47L203.049 200.875C201.925 200.507 201.597 202.29 202.521 202.583L204.107 203.178ZM197.894 200.951C198.885 201.319 199.347 199.536 198.356 199.167L196.769 198.648C195.711 198.347 195.249 200.13 196.307 200.432L197.894 200.951ZM191.614 199.025C192.538 199.318 193.134 197.61 192.009 197.242L190.422 196.798C189.23 196.505 189.036 198.355 190.027 198.581L191.614 199.025ZM185.274 197.317C186.332 197.543 186.592 195.76 185.602 195.534L183.948 195.165C182.89 194.939 182.562 196.723 183.612 196.949L185.266 197.317H185.274ZM178.859 195.977C179.85 196.203 180.245 194.42 179.12 194.119C178.591 194.043 177.995 193.892 177.466 193.826C176.475 193.599 176.08 195.383 177.205 195.684C177.734 195.76 178.33 195.835 178.859 195.986V195.977ZM172.378 194.864C173.503 195.014 173.637 193.156 172.579 193.08L170.992 192.854C169.867 192.704 169.733 194.562 170.791 194.638L172.378 194.864ZM165.904 194.119C166.962 194.194 167.163 192.41 166.038 192.26L164.384 192.109C163.393 191.958 163.125 193.817 164.317 193.968L165.904 194.119ZM159.43 193.599C160.555 193.675 160.488 191.816 159.497 191.816L157.843 191.741C156.718 191.665 156.718 193.524 157.776 193.524L159.43 193.599ZM152.881 193.449C153.939 193.449 154.006 191.59 152.881 191.59H151.227C150.236 191.59 150.102 193.449 151.227 193.449H152.881ZM146.34 193.599C147.532 193.449 147.331 191.665 146.273 191.741L144.686 191.816C143.561 191.891 143.695 193.75 144.753 193.675L146.34 193.599ZM139.859 193.968C140.916 193.892 140.782 192.034 139.724 192.109L138.071 192.26C137.013 192.335 137.147 194.194 138.205 194.119L139.859 193.968ZM133.385 194.638C134.375 194.562 134.308 192.704 133.183 192.854C132.654 192.93 132.058 193.005 131.529 193.08C130.539 193.156 130.606 195.014 131.731 194.864C132.26 194.788 132.789 194.713 133.385 194.638ZM126.903 195.601C128.028 195.374 127.633 193.599 126.642 193.817L124.988 194.043C123.93 194.345 124.258 196.128 125.249 195.902L126.903 195.601ZM120.429 196.865C121.487 196.639 121.226 194.788 120.168 195.006L118.514 195.374C117.523 195.601 117.784 197.384 118.842 197.158L120.429 196.856V196.865ZM114.082 198.28C115.072 198.129 114.812 196.27 113.687 196.496L112.1 196.94C110.975 197.242 111.504 199.017 112.495 198.724L114.082 198.28ZM107.734 200.063C108.792 199.695 108.33 197.911 107.272 198.28L105.685 198.724C104.628 199.017 105.089 200.8 106.147 200.507L107.734 200.063ZM101.394 201.997C102.452 201.704 102.057 199.846 100.932 200.214L99.4125 200.733C98.4217 201.026 98.7495 202.81 99.8744 202.516L101.394 201.997ZM397.375 193.156C396.384 193.524 396.779 195.232 397.904 194.939L399.424 194.345C400.348 194.043 400.087 192.268 398.895 192.637L397.375 193.156ZM569.56 233.195C570.416 233.94 571.407 232.449 570.551 231.78L569.888 231.11C568.964 230.289 568.04 231.855 568.83 232.525L569.56 233.195ZM565 229.109C565.865 229.854 566.848 228.363 566.058 227.627L564.732 226.513C563.875 225.768 562.877 227.183 563.741 227.928L564.993 229.117L565 229.109ZM559.845 224.579C560.635 225.324 561.693 223.909 560.836 223.164L559.517 222.05C558.66 221.305 557.602 222.72 558.526 223.532L559.845 224.571V224.579ZM554.555 220.342C555.479 221.012 556.343 219.455 555.479 218.785L554.161 217.747C553.17 217.077 552.305 218.643 553.237 219.304L554.555 220.342ZM549.139 216.181C550.063 216.851 550.92 215.293 550.063 214.624L548.677 213.661C547.754 212.991 546.889 214.557 547.754 215.218L549.139 216.181ZM543.649 212.246C544.513 212.916 545.437 211.425 544.513 210.688L543.06 209.726C542.27 209.131 541.28 210.613 542.27 211.358L543.656 212.246H543.649ZM538.031 208.528C539.022 209.123 539.685 207.49 538.828 206.971L537.376 206.008C536.385 205.489 535.655 207.122 536.586 207.641L538.039 208.537L538.031 208.528ZM532.28 205.037C533.271 205.556 534.001 203.998 533.003 203.404L531.55 202.583C530.559 201.989 529.896 203.697 530.82 204.216L532.272 205.028L532.28 205.037ZM526.394 201.771C527.385 202.29 528.115 200.658 527.125 200.139L525.672 199.318C524.748 198.799 523.958 200.432 524.942 200.951L526.394 201.771ZM520.516 198.724C521.574 199.167 522.103 197.459 521.112 197.016L519.66 196.27C518.602 195.827 518.006 197.61 518.997 197.978L520.516 198.724ZM514.437 195.977C515.428 196.421 516.084 194.713 515.033 194.194L513.513 193.599C512.523 193.156 511.926 194.864 512.917 195.307L514.437 195.977ZM508.35 193.449C509.475 193.817 509.803 191.967 508.879 191.665L507.293 191.071C506.168 190.702 505.84 192.486 506.764 192.854L508.35 193.449ZM502.145 191.146C503.203 191.515 503.597 189.731 502.607 189.438L501.02 188.919C499.962 188.551 499.5 190.334 500.558 190.627L502.145 191.146ZM495.864 189.22C496.788 189.513 497.384 187.805 496.259 187.437L494.672 186.993C493.48 186.7 493.279 188.551 494.277 188.777L495.864 189.22ZM489.517 187.579C490.575 187.805 490.836 185.947 489.845 185.721L488.191 185.352C487.133 185.126 486.865 186.91 487.93 187.136L489.517 187.579ZM483.102 186.173C484.093 186.399 484.496 184.615 483.363 184.389C482.834 184.239 482.305 184.163 481.709 184.021C480.786 183.87 480.324 185.654 481.449 185.88C482.045 185.955 482.574 186.106 483.102 186.181V186.173ZM476.628 185.059C477.753 185.21 477.887 183.426 476.83 183.276L475.243 183.05C474.118 182.899 473.984 184.758 475.042 184.833L476.628 185.059ZM470.147 184.314C471.205 184.465 471.398 182.606 470.281 182.455L468.627 182.304C467.636 182.229 467.368 184.013 468.56 184.163L470.147 184.314ZM463.673 183.87C464.798 183.87 464.731 182.011 463.74 182.011L462.086 181.936C460.961 181.936 460.961 183.719 462.019 183.795L463.673 183.87ZM457.124 183.644C458.182 183.644 458.249 181.861 457.124 181.785H455.47C454.48 181.785 454.345 183.644 455.47 183.644H457.124ZM450.583 183.795C451.775 183.719 451.574 181.861 450.516 181.936L448.929 182.011C447.804 182.087 447.938 183.946 448.996 183.87L450.583 183.795ZM444.109 184.163C445.167 184.088 445.1 182.229 443.975 182.38L442.321 182.531C441.263 182.606 441.397 184.389 442.455 184.314L444.109 184.163ZM437.628 184.908C438.618 184.758 438.551 182.899 437.427 183.05C436.898 183.125 436.302 183.2 435.773 183.276C434.782 183.351 434.849 185.21 435.974 185.059C436.503 184.984 437.032 184.908 437.628 184.908ZM431.154 185.796C432.279 185.57 431.876 183.795 430.893 184.013L429.239 184.306C428.181 184.532 428.509 186.315 429.5 186.089L431.154 185.788V185.796ZM424.672 187.06C425.73 186.834 425.469 185.059 424.411 185.277L422.765 185.57C421.774 185.796 422.035 187.646 423.093 187.429L424.68 187.06H424.672ZM418.332 188.551C419.323 188.325 419.062 186.474 417.937 186.767L416.35 187.136C415.225 187.504 415.754 189.22 416.745 188.919L418.332 188.551ZM411.985 190.259C413.043 189.89 412.581 188.182 411.59 188.475L409.936 188.919C408.878 189.287 409.34 190.995 410.398 190.702L411.985 190.259ZM405.704 192.184C406.695 191.891 406.3 190.108 405.242 190.401L403.656 190.92C402.665 191.213 402.993 193.072 404.118 192.704L405.704 192.184Z" fill="white"/>
</svg>
