<svg width="195" height="51" viewBox="0 0 195 51" fill="none" xmlns="http://www.w3.org/2000/svg">
<g clip-path="url(#clip0_862_41392)">
<path d="M47.3691 21.1361H49.4278V17.5645H53.1237V21.1361H55.7373V23.8817H53.1237V30.3954C53.1237 31.3975 53.432 31.7868 54.535 31.7868C54.7405 31.7868 55.1001 31.7868 55.3776 31.7462V34.2582C54.6446 34.5054 53.6375 34.5088 52.8942 34.5088C50.291 34.5088 49.4278 33.1309 49.4278 30.822V23.8817H47.3691V21.1361Z" fill="white"/>
<path d="M70.1954 27.7109C70.1954 31.7023 67.7771 34.6409 63.5503 34.6409C59.3234 34.6409 56.9941 31.7226 56.9941 27.782C56.9941 23.8413 59.4844 20.835 63.7249 20.835C67.6538 20.835 70.1988 23.5772 70.1988 27.7142L70.1954 27.7109ZM60.7415 27.7346C60.7415 30.2737 61.8479 31.7802 63.629 31.7802C65.4102 31.7802 66.4447 30.2737 66.4447 27.7583C66.4447 24.9957 65.4205 23.6923 63.5777 23.6923C61.865 23.6923 60.7415 24.9483 60.7415 27.7379V27.7346Z" fill="white"/>
<path d="M84.4893 30.5005C84.4893 31.7734 84.4893 33.1547 84.5167 34.3362H80.8962C80.8448 33.9808 80.8174 33.2766 80.7968 32.8128C80.0056 34.1365 78.8272 34.6409 77.1214 34.6409C74.4017 34.6409 72.665 33.0057 72.665 29.7354V21.1396H76.3576V29.0041C76.3576 30.4599 76.8131 31.6651 78.4128 31.6651C80.098 31.6651 80.7968 30.7781 80.7968 28.1645V21.143H84.4928V30.5039L84.4893 30.5005Z" fill="white"/>
<path d="M87.8223 24.7186C87.8223 23.4084 87.8223 22.2438 87.7949 21.1401H91.4189C91.4669 21.4346 91.5148 22.7448 91.5148 23.4558C92.104 21.9492 93.5289 20.8456 95.7999 20.832V24.3191C93.1179 24.2514 91.5148 24.9623 91.5148 28.5814V34.3333H87.8189V24.7186H87.8223Z" fill="white"/>
<path d="M97.8799 15.7227H101.576V18.9795H97.8799V15.7227ZM97.8799 21.136H101.576V34.3326H97.8799V21.136Z" fill="white"/>
<path d="M107.491 30.3651C107.772 31.418 108.638 32.007 110.019 32.007C111.399 32.007 111.882 31.5229 111.882 30.7239C111.882 29.8776 111.31 29.5458 109.395 29.082C105.045 28.0223 104.333 26.6918 104.333 24.8298C104.333 22.9678 105.72 20.835 109.748 20.835C113.776 20.835 115.167 23.022 115.283 24.8095H111.769C111.649 24.322 111.32 23.4012 109.584 23.4012C108.361 23.4012 107.967 23.9361 107.967 24.5285C107.967 25.1853 108.381 25.5035 110.55 26.0012C115.003 27.0236 115.633 28.5335 115.633 30.47C115.633 32.6536 113.951 34.6443 109.882 34.6443C105.812 34.6443 104.154 32.7112 103.863 30.3718H107.494L107.491 30.3651Z" fill="white"/>
<path d="M118.051 24.5391C118.051 23.3982 118.051 22.2675 118.023 21.1367H121.558C121.606 21.4583 121.682 22.1964 121.702 22.711C122.38 21.7292 123.453 20.832 125.412 20.832C127.371 20.832 128.385 21.8138 128.858 22.8396C129.639 21.7596 130.793 20.832 132.972 20.832C135.297 20.832 137.202 22.2438 137.202 25.6766V34.3333H133.595V26.1201C133.595 24.9285 133.157 23.7639 131.646 23.7639C130.135 23.7639 129.461 24.766 129.461 26.7871V34.3299H125.837V26.2556C125.837 24.8878 125.498 23.7842 123.918 23.7842C122.339 23.7842 121.702 24.6982 121.702 26.9597V34.3299H118.051V24.5357V24.5391Z" fill="white"/>
<path d="M169.466 31.5906L176.073 24.0207H169.788V21.1396H180.249V23.9801L173.768 31.4552H180.715L180.269 34.3362H169.469V31.594L169.466 31.5906Z" fill="white"/>
<path d="M185.627 28.5171C185.627 30.1658 186.466 31.7807 188.305 31.7807C189.843 31.7807 190.285 31.1713 190.635 30.3723H194.334C193.861 31.9872 192.402 34.6414 188.209 34.6414C184.017 34.6414 181.903 31.3913 181.903 27.928C181.903 23.7876 184.051 20.832 188.34 20.832C192.926 20.832 194.485 24.1092 194.485 27.4032C194.485 27.8501 194.485 28.1379 194.437 28.5171H185.627ZM190.782 26.2725C190.754 24.7355 190.134 23.4422 188.333 23.4422C186.531 23.4422 185.849 24.6508 185.702 26.2725H190.782Z" fill="white"/>
<path d="M161.241 20.8955C158.138 20.8955 155.49 22.8151 154.445 25.5201C154.986 26.2649 156.035 27.6902 157.004 28.8785C156.956 28.6212 156.925 28.3571 156.925 28.0863C156.925 25.73 158.857 23.8206 161.241 23.8206C163.625 23.8206 165.557 25.73 165.557 28.0863C165.557 30.4425 163.625 32.352 161.241 32.352C160.279 32.352 159.391 32.0371 158.672 31.509C158.583 31.4413 158.134 31.1298 157.908 30.9301C157.148 30.2563 155.74 28.9123 154.798 27.4362C154.14 26.4003 153.15 25.0766 152.534 24.2641C152.39 24.0779 151.842 23.3229 151.636 23.113C150.311 21.7486 148.447 20.8955 146.382 20.8955C142.364 20.8955 139.106 24.1151 139.106 28.0863C139.106 32.0574 142.364 35.277 146.382 35.277C149.276 35.277 151.773 33.608 152.945 31.1907C152.249 30.3884 151.331 29.2238 150.681 28.3909C150.523 30.605 148.66 32.352 146.382 32.352C144.104 32.352 142.066 30.4425 142.066 28.0863C142.066 25.73 143.998 23.8206 146.382 23.8206C147.752 23.8206 148.965 24.4536 149.756 25.4354C149.756 25.4354 152.657 29.6977 153.859 31.0519C154.438 31.7053 155.058 32.3012 155.61 32.7921C156.524 33.608 157.257 34.0989 157.257 34.0989C157.377 34.1767 157.501 34.2512 157.624 34.3223C158.689 34.9283 159.926 35.277 161.241 35.277C165.259 35.277 168.516 32.0574 168.516 28.0863C168.516 24.1151 165.259 20.8955 161.241 20.8955Z" fill="white"/>
<path d="M26.0222 51.5876C40.484 44.2106 34.0615 35.0597 19.5791 28.6611C34.9109 38.347 31.0609 46.5703 26.0222 51.5876Z" fill="white"/>
<path d="M8.42578 18.8848C8.55252 18.9931 8.68611 19.0981 8.8197 19.2064C17.2666 26.1365 28.6901 28.767 34.5851 35.3551C39.1409 40.4502 37.6166 44.0084 36.8424 45.3693C41.3365 41.5031 41.1858 35.2264 34.1741 30.9438C27.1624 26.6612 18.1092 24.5182 8.42921 18.8882L8.42578 18.8848Z" fill="white"/>
<path d="M6.7551 12.9672C10.3346 9.51736 15.1232 7.2931 20.4359 6.98841C20.8538 6.96471 21.2751 6.95117 21.6999 6.95117C33.5208 6.95117 43.1083 16.4237 43.1083 28.1138C43.1083 30.856 42.5739 33.4764 41.6114 35.8868C41.0668 29.2073 31.4792 25.9268 22.4329 22.741C13.9243 19.7449 8.62876 17.3615 6.27212 14.5786C5.16916 13.282 4.65879 11.7619 4.61426 10.3197C4.9842 11.5486 5.91589 12.4153 6.7551 12.9705V12.9672Z" fill="white"/>
<path d="M2.14413 19.4973C0.136875 14.0534 1.67486 9.1242 5.64141 6.64941C-2.51092 15.9798 11.7419 24.4672 22.3639 33.1915C27.889 37.7281 28.831 45.2574 23.1004 48.1486C21.3535 49.0288 19.3325 49.2285 17.4075 48.8392C7.64181 46.8756 0.291016 38.3442 0.291016 28.1099C0.291016 25.0427 0.955533 22.1278 2.14413 19.4973Z" fill="white"/>
<path d="M7.03125 5.98559L10.5868 8.44006L14.9232 -0.500977L7.03125 5.98559Z" fill="white"/>
<path d="M14.6735 -0.588867L3.04102 3.16562L5.84637 5.08519L14.6735 -0.588867Z" fill="white"/>
<path d="M6.02441 5.19032V6.57159L13.7212 0.244141L6.02441 5.19032Z" fill="white"/>
</g>
<defs>
<clipPath id="clip0_862_41392">
<rect width="195" height="51" fill="white"/>
</clipPath>
</defs>
</svg>
