<svg width="206" height="94" viewBox="0 0 206 94" fill="none" xmlns="http://www.w3.org/2000/svg">
<g clip-path="url(#clip0_862_43167)">
<path d="M81.457 9.98338L93.424 0L81.457 7.80414V9.98338Z" fill="#283B8A"/>
<path d="M93.4241 0L82.8027 8.86162L87.5895 12.2141L93.4241 0Z" fill="#1E75BB"/>
<path d="M77.6572 5.16847L81.4572 7.80414L93.4242 0L77.6572 5.16847Z" fill="#1E75BB"/>
<path d="M108.929 72.6925C128.771 62.4231 119.96 49.6755 100.089 40.7656C121.123 54.2525 115.84 65.7016 108.929 72.6925Z" fill="#0FA499"/>
<path d="M84.79 27.1504C84.9631 27.3015 85.1489 27.4461 85.3315 27.5972C96.9204 37.2463 112.591 40.9105 120.678 50.0871C126.929 57.1841 124.837 62.1372 123.777 64.0304C129.941 58.6466 129.733 49.9071 120.114 43.9415C110.496 37.9791 98.0739 34.9931 84.7932 27.1536L84.79 27.1504Z" fill="url(#paint0_linear_862_43167)"/>
<path d="M82.4957 18.913C87.4043 14.1109 93.9757 11.0124 101.265 10.5849C101.838 10.5496 102.415 10.5303 102.998 10.5303C119.217 10.5303 132.369 23.7247 132.369 39.9983C132.369 43.8168 131.636 47.4681 130.316 50.8206C129.566 41.5186 116.417 36.948 104.004 32.5156C92.332 28.3435 85.0653 25.0232 81.8325 21.1501C80.3202 19.3437 79.6185 17.2287 79.5576 15.2166C80.0639 16.9266 81.3455 18.1351 82.4957 18.9098V18.913Z" fill="url(#paint1_linear_862_43167)"/>
<path d="M76.1709 28.0056C73.4187 20.4233 75.5269 13.5609 80.9674 10.1152C69.7821 23.1071 89.3362 34.9258 103.911 47.0756C111.492 53.3948 112.783 63.8764 104.921 67.9006C102.521 69.1284 99.7525 69.4016 97.1124 68.8648C83.7132 66.1295 73.627 54.2465 73.627 39.9979C73.627 35.7262 74.5369 31.6698 76.1677 28.0056H76.1709Z" fill="#0FA499"/>
<path d="M12.1777 76.2802H14.7185V71.8027H19.2842V76.2802H22.5139V79.7226H19.2842V87.8835C19.2842 89.1371 19.6655 89.6256 21.0272 89.6256C21.2803 89.6256 21.7257 89.6224 22.0653 89.5742V92.7241C21.1586 93.0327 19.9186 93.0391 18.9959 93.0391C15.779 93.0391 14.7185 91.3131 14.7185 88.4203V79.7226H12.1777V76.2802Z" fill="#0FA499"/>
<path d="M40.3606 84.5177C40.3606 89.5223 37.3745 93.2026 32.1551 93.2026C26.9358 93.2026 24.0586 89.5448 24.0586 84.6077C24.0586 79.6707 27.1344 75.9004 32.3698 75.9004C37.2207 75.9004 40.3606 79.3364 40.3606 84.5209V84.5177ZM28.6884 84.5499C28.6884 87.7319 30.0533 89.6187 32.2513 89.6187C34.4492 89.6187 35.7276 87.732 35.7276 84.5788C35.7276 81.1171 34.462 79.481 32.1872 79.481C30.0693 79.481 28.6884 81.0528 28.6884 84.5499Z" fill="#0FA499"/>
<path d="M58.0107 88.0119C58.0107 89.6062 58.0139 91.3386 58.0427 92.8172H53.5699C53.5059 92.3736 53.4738 91.4897 53.445 90.9111C52.4678 92.5697 51.0131 93.2029 48.9049 93.2029C45.5471 93.2029 43.4004 91.1554 43.4004 87.0541V76.2832H47.9597V86.138C47.9597 87.9637 48.5236 89.4744 50.5005 89.4744C52.5831 89.4744 53.4418 88.3623 53.4418 85.087V76.2864H58.0075V88.0183L58.0107 88.0119Z" fill="#0FA499"/>
<path d="M62.1219 80.7673C62.1219 79.1248 62.1187 77.6656 62.0898 76.2802H66.5659C66.6267 76.6499 66.6844 78.2923 66.6844 79.1827C67.4117 77.2927 69.1707 75.9106 71.9742 75.8945V80.2627C68.6613 80.1759 66.6844 81.0694 66.6844 85.6047V92.8142H62.1187V80.7641L62.1219 80.7673Z" fill="#0FA499"/>
<path d="M74.5439 69.498H79.1097V73.5801H74.5439V69.498ZM74.5439 76.2801H79.1097V92.8172H74.5439V76.2801Z" fill="#0FA499"/>
<path d="M86.4117 87.8477C86.7577 89.1655 87.8279 89.9048 89.5324 89.9048C91.2369 89.9048 91.8297 89.2973 91.8297 88.2977C91.8297 87.237 91.1216 86.8191 88.7602 86.2373C83.3903 84.9099 82.5124 83.2417 82.5124 80.9082C82.5124 78.5746 84.2233 75.9004 89.196 75.9004C94.1686 75.9004 95.8892 78.6389 96.0301 80.8792H91.6887C91.5413 80.2685 91.1376 79.1146 88.9909 79.1146C87.4818 79.1146 86.9948 79.7864 86.9948 80.5289C86.9948 81.3517 87.5075 81.7503 90.1828 82.3738C95.6841 83.6563 96.4595 85.5495 96.4595 87.973C96.4595 90.7115 94.3833 93.2026 89.3562 93.2026C84.3291 93.2026 82.2849 90.779 81.9229 87.8477H86.4053H86.4117Z" fill="#0FA499"/>
<path d="M99.449 80.5423C99.449 79.112 99.449 77.6945 99.417 76.2802H103.781C103.842 76.682 103.931 77.6077 103.957 78.2506C104.793 77.0195 106.12 75.8945 108.539 75.8945C110.958 75.8945 112.211 77.1256 112.794 78.4113C113.758 77.0581 115.181 75.8945 117.872 75.8945C120.746 75.8945 123.098 77.6656 123.098 81.9662V92.8142H118.647V82.5223C118.647 81.0276 118.106 79.5684 116.238 79.5684C114.37 79.5684 113.54 80.8219 113.54 83.358V92.811H109.064V82.6926C109.064 80.9794 108.645 79.5941 106.697 79.5941C104.748 79.5941 103.96 80.7384 103.96 83.5765V92.811H99.4522V80.5359L99.449 80.5423Z" fill="#1F75B9"/>
<path d="M162.934 89.3812L171.091 79.8928H163.331V76.2832H176.246V79.8413L168.246 89.2076H176.823L176.272 92.8172H162.934V89.378V89.3812Z" fill="#1F75B9"/>
<path d="M182.885 85.5305C182.888 87.5972 183.923 89.619 186.194 89.619C188.094 89.619 188.636 88.854 189.072 87.8544H193.64C193.057 89.8793 191.257 93.2028 186.076 93.2028C180.895 93.2028 178.29 89.1304 178.29 84.7912C178.29 79.6035 180.943 75.8975 186.239 75.8975C191.901 75.8975 193.826 80.0052 193.826 84.1355C193.826 84.6948 193.826 85.058 193.765 85.5305H182.888H182.885ZM189.251 82.718C189.219 80.7927 188.453 79.1728 186.23 79.1728C184.006 79.1728 183.163 80.6867 182.981 82.718H189.251Z" fill="#1F75B9"/>
<path d="M152.776 75.9775C148.944 75.9775 145.676 78.385 144.385 81.7728C145.051 82.7081 146.346 84.492 147.544 85.9834C147.483 85.662 147.448 85.3309 147.448 84.9902C147.448 82.0396 149.835 79.645 152.776 79.645C155.717 79.645 158.104 82.0396 158.104 84.9902C158.104 87.9409 155.717 90.3355 152.776 90.3355C151.587 90.3355 150.492 89.9433 149.604 89.2812C149.492 89.1976 148.941 88.8087 148.662 88.558C147.723 87.7127 145.983 86.0284 144.824 84.177C144.01 82.8785 142.792 81.2199 142.03 80.201C141.854 79.9664 141.177 79.0214 140.921 78.7578C139.287 77.0447 136.983 75.9808 134.436 75.9808C129.476 75.9808 125.452 80.0146 125.452 84.9934C125.452 89.9723 129.473 94.0061 134.436 94.0061C138.009 94.0061 141.091 91.9137 142.539 88.8859C141.684 87.8798 140.546 86.4238 139.745 85.3759C139.55 88.1498 137.249 90.3387 134.436 90.3387C131.623 90.3387 129.108 87.9441 129.108 84.9934C129.108 82.0428 131.495 79.6482 134.436 79.6482C136.125 79.6482 137.627 80.4421 138.601 81.6731C138.601 81.6731 142.184 87.0152 143.667 88.7155C144.381 89.5351 145.15 90.2808 145.826 90.8948C146.958 91.9169 147.858 92.534 147.858 92.534C148.005 92.6304 148.156 92.7237 148.31 92.8137C149.626 93.5722 151.148 94.0093 152.776 94.0093C157.736 94.0093 161.76 89.9755 161.76 84.9967C161.76 80.0178 157.739 75.984 152.776 75.984V75.9775Z" fill="#1F75B9"/>
</g>
<defs>
<linearGradient id="paint0_linear_862_43167" x1="84.79" y1="45.5904" x2="127.951" y2="45.5904" gradientUnits="userSpaceOnUse">
<stop stop-color="#019CD9"/>
<stop offset="1" stop-color="#20448C"/>
</linearGradient>
<linearGradient id="paint1_linear_862_43167" x1="79.5576" y1="30.677" x2="132.369" y2="30.677" gradientUnits="userSpaceOnUse">
<stop stop-color="#019CD9"/>
<stop offset="1" stop-color="#20448C"/>
</linearGradient>
<clipPath id="clip0_862_43167">
<rect width="206" height="94" fill="white"/>
</clipPath>
</defs>
</svg>
