<svg width="20" height="20" viewBox="0 0 20 20" fill="none" xmlns="http://www.w3.org/2000/svg">
<path d="M7.33219 0H1.73158C0.776768 0 0 0.776768 0 1.73158V7.33219C0 8.287 0.776768 9.06377 1.73158 9.06377H7.33219C8.287 9.06377 9.06377 8.287 9.06377 7.33219V1.73158C9.06384 0.776768 8.287 0 7.33219 0ZM7.65535 7.33219C7.65535 7.51037 7.51037 7.65535 7.33219 7.65535H1.73158C1.5534 7.65535 1.40842 7.51037 1.40842 7.33219V1.73158C1.40842 1.5534 1.5534 1.40842 1.73158 1.40842H7.33219C7.51037 1.40842 7.65535 1.5534 7.65535 1.73158V7.33219Z" fill="white"/>
<path d="M18.2687 0H12.6681C11.7133 0 10.9365 0.776768 10.9365 1.73158V7.33219C10.9365 8.287 11.7133 9.06377 12.6681 9.06377H18.2687C19.2235 9.06377 20.0003 8.287 20.0003 7.33219V1.73158C20.0003 0.776768 19.2235 0 18.2687 0ZM18.5919 7.33219C18.5919 7.51037 18.4469 7.65535 18.2687 7.65535H12.6681C12.4899 7.65535 12.3449 7.51037 12.3449 7.33219V1.73158C12.3449 1.5534 12.4899 1.40842 12.6681 1.40842H18.2687C18.4469 1.40842 18.5919 1.5534 18.5919 1.73158V7.33219Z" fill="white"/>
<path d="M7.33219 10.9365H1.73158C0.776768 10.9365 0 11.7134 0 12.6682V18.2688C0 19.2236 0.776768 20.0004 1.73158 20.0004H7.33219C8.287 20.0004 9.06377 19.2236 9.06377 18.2688V12.6682C9.06384 11.7134 8.287 10.9365 7.33219 10.9365ZM7.65535 18.2688C7.65535 18.447 7.51037 18.5919 7.33219 18.5919H1.73158C1.5534 18.5919 1.40842 18.447 1.40842 18.2688V12.6682C1.40842 12.49 1.5534 12.345 1.73158 12.345H7.33219C7.51037 12.345 7.65535 12.49 7.65535 12.6682V18.2688Z" fill="white"/>
<path d="M18.2687 10.9365H12.6681C11.7133 10.9365 10.9365 11.7133 10.9365 12.6681V18.2687C10.9365 19.2235 11.7133 20.0003 12.6681 20.0003H18.2687C19.2235 20.0004 20.0003 19.2236 20.0003 18.2688V12.6682C20.0003 11.7134 19.2235 10.9365 18.2687 10.9365ZM18.5919 18.2688C18.5919 18.447 18.4469 18.5919 18.2687 18.5919H12.6681C12.4899 18.5919 12.3449 18.447 12.3449 18.2688V12.6682C12.3449 12.49 12.4899 12.345 12.6681 12.345H18.2687C18.4469 12.345 18.5919 12.49 18.5919 12.6682V18.2688Z" fill="white"/>
</svg>
