<svg width="39" height="40" viewBox="0 0 39 40" fill="none" xmlns="http://www.w3.org/2000/svg">
<path d="M28.318 8.68545L38.7685 0L28.318 6.79397V8.68545Z" fill="#283B8A"/>
<path d="M38.7685 0L29.4962 7.71036L33.6764 10.6266L38.7685 0Z" fill="#1E75BB"/>
<path d="M25 4.49621L28.318 6.79397L38.7685 0L25 4.49621Z" fill="#1E75BB"/>
<path d="M13.8137 0.0406494C6.18454 0.0406494 0 6.22519 0 13.8543C0 14.9422 0.130914 16.0031 0.37017 17.0188C1.72445 17.1768 3.1013 17.2581 4.50524 17.2581C13.1726 17.2581 21.0365 14.1658 26.8012 9.14141C24.8736 3.83263 19.786 0.0406494 13.8137 0.0406494Z" fill="url(#paint0_linear_211_23415)"/>
<path d="M6.12134 27.7537C9.75081 33.5726 13.8136 39.8384 13.8136 39.8384C13.8136 39.8384 23.4651 24.9549 26.2956 19.768C26.6567 19.1044 26.887 18.3685 27.0991 17.6282C27.4422 16.4274 27.6273 15.1589 27.6273 13.8498C27.6273 12.816 27.5144 11.8093 27.2978 10.8387C23.5825 19.0502 15.7638 25.3747 6.12585 27.7537H6.12134Z" fill="#11A59B"/>
<defs>
<linearGradient id="paint0_linear_211_23415" x1="0" y1="8.64935" x2="26.8012" y2="8.64935" gradientUnits="userSpaceOnUse">
<stop stop-color="#039EDA"/>
<stop offset="1" stop-color="#214391"/>
</linearGradient>
</defs>
</svg>
