<svg width="172" height="50" viewBox="0 0 172 50" fill="none" xmlns="http://www.w3.org/2000/svg">
<path d="M165.385 50H6.94878C3.46476 50 0.611328 47.1859 0.611328 43.75V6.25C0.611328 2.81407 3.46476 4.76837e-06 6.94878 4.76837e-06H165.385C168.869 4.76837e-06 171.722 2.81407 171.722 6.25V43.75C171.722 47.1859 168.869 50 165.385 50Z" fill="white"/>
<path d="M165.385 1.00156C168.319 1.00156 170.707 3.35626 170.707 6.25V43.75C170.707 46.6438 168.319 48.9984 165.385 48.9984H6.94878C4.01454 48.9984 1.6269 46.6438 1.6269 43.75V6.25C1.6269 3.35626 4.01454 1.00156 6.94878 1.00156H165.385ZM165.385 4.76837e-06H6.94878C3.46476 4.76837e-06 0.611328 2.81407 0.611328 6.25V43.75C0.611328 47.1859 3.46476 50 6.94878 50H165.385C168.869 50 171.722 47.1859 171.722 43.75V6.25C171.722 2.81407 168.869 4.76837e-06 165.385 4.76837e-06Z" fill="#A6A6A6"/>
<path d="M13.8378 9.42324C13.4655 9.80762 13.25 10.4061 13.25 11.1811V38.8248C13.25 39.5998 13.4655 40.1982 13.8378 40.5826L13.9297 40.667L29.637 25.1826V24.817L13.9297 9.33262L13.8378 9.42324Z" fill="url(#paint0_linear_862_43155)"/>
<path d="M34.8667 30.3467L29.6367 25.1826V24.817L34.873 19.6529L34.9903 19.7201L41.1915 23.1998C42.9612 24.1873 42.9612 25.8123 41.1915 26.8061L34.9903 30.2795L34.8667 30.3467Z" fill="url(#paint1_linear_862_43155)"/>
<path d="M34.9907 30.2796L29.6371 24.9999L13.8379 40.5827C14.4257 41.1921 15.3842 41.2655 16.4743 40.6562L34.9907 30.2796Z" fill="url(#paint2_linear_862_43155)"/>
<path d="M34.9907 19.7203L16.4743 9.34376C15.3842 8.74063 14.4257 8.81407 13.8379 9.42344L29.6371 25L34.9907 19.7203Z" fill="url(#paint3_linear_862_43155)"/>
<path d="M60.7127 12.805C60.7127 13.8487 60.3958 14.6847 59.7716 15.3081C59.0539 16.0472 58.1191 16.419 56.9736 16.419C55.8788 16.419 54.944 16.0409 54.1772 15.2956C53.4088 14.5394 53.0254 13.6112 53.0254 12.5003C53.0254 11.3894 53.4088 10.4612 54.1772 9.71123C54.944 8.95967 55.8788 8.58154 56.9736 8.58154C57.5186 8.58154 58.0383 8.69248 58.5342 8.89873C59.0285 9.10654 59.431 9.38779 59.7225 9.73467L59.0602 10.394C58.5516 9.80186 57.8593 9.50967 56.9736 9.50967C56.1751 9.50967 55.4827 9.78467 54.8949 10.3394C54.3135 10.8956 54.022 11.6159 54.022 12.5003C54.022 13.3847 54.3135 14.1112 54.8949 14.6675C55.4827 15.2159 56.1751 15.4972 56.9736 15.4972C57.8213 15.4972 58.5342 15.2159 59.0967 14.6612C59.4674 14.294 59.6781 13.7878 59.7336 13.1409H56.9736V12.2378H60.6557C60.7 12.4331 60.7127 12.6222 60.7127 12.805Z" fill="black" stroke="black" stroke-width="0.16" stroke-miterlimit="10"/>
<path d="M66.554 9.67373H63.0953V12.0487H66.2134V12.9519H63.0953V15.3269H66.554V16.2472H62.1162V8.75342H66.554V9.67373Z" fill="black" stroke="black" stroke-width="0.16" stroke-miterlimit="10"/>
<path d="M70.6768 16.2472H69.6976V9.67373H67.5762V8.75342H72.7998V9.67373H70.6768V16.2472Z" fill="black" stroke="black" stroke-width="0.16" stroke-miterlimit="10"/>
<path d="M76.5801 16.2472V8.75342H77.5576V16.2472H76.5801Z" fill="black" stroke="black" stroke-width="0.16" stroke-miterlimit="10"/>
<path d="M81.8906 16.2472H80.9194V9.67373H78.79V8.75342H84.02V9.67373H81.8906V16.2472Z" fill="black" stroke="black" stroke-width="0.16" stroke-miterlimit="10"/>
<path d="M93.91 15.2831C93.1606 16.0409 92.2321 16.419 91.1247 16.419C90.0109 16.419 89.0824 16.0409 88.333 15.2831C87.5852 14.5269 87.2129 13.5987 87.2129 12.5003C87.2129 11.4019 87.5852 10.4737 88.333 9.71748C89.0824 8.95967 90.0109 8.58154 91.1247 8.58154C92.2258 8.58154 93.1543 8.95967 93.9037 9.72373C94.6578 10.4862 95.0301 11.4081 95.0301 12.5003C95.0301 13.5987 94.6578 14.5269 93.91 15.2831ZM89.0571 14.655C89.6211 15.2159 90.3071 15.4972 91.1247 15.4972C91.9359 15.4972 92.6282 15.2159 93.1859 14.655C93.7484 14.094 94.0336 13.3737 94.0336 12.5003C94.0336 11.6269 93.7484 10.9065 93.1859 10.3456C92.6282 9.78467 91.9359 9.50342 91.1247 9.50342C90.3071 9.50342 89.6211 9.78467 89.0571 10.3456C88.4946 10.9065 88.2095 11.6269 88.2095 12.5003C88.2095 13.3737 88.4946 14.094 89.0571 14.655Z" fill="black" stroke="black" stroke-width="0.16" stroke-miterlimit="10"/>
<path d="M96.4033 16.2472V8.75342H97.5916L101.286 14.5815H101.329L101.286 13.1409V8.75342H102.264V16.2472H101.244L97.3745 10.1315H97.3318L97.3745 11.5784V16.2472H96.4033Z" fill="black" stroke="black" stroke-width="0.16" stroke-miterlimit="10"/>
<path d="M86.9715 27.1904C83.9945 27.1904 81.5625 29.4248 81.5625 32.5076C81.5625 35.5654 83.9945 37.8232 86.9715 37.8232C89.9549 37.8232 92.3869 35.5654 92.3869 32.5076C92.3869 29.4248 89.9549 27.1904 86.9715 27.1904ZM86.9715 35.7295C85.338 35.7295 83.9327 34.3998 83.9327 32.5076C83.9327 30.5904 85.338 29.2842 86.9715 29.2842C88.605 29.2842 90.0167 30.5904 90.0167 32.5076C90.0167 34.3998 88.605 35.7295 86.9715 35.7295ZM75.1696 27.1904C72.1863 27.1904 69.7606 29.4248 69.7606 32.5076C69.7606 35.5654 72.1863 37.8232 75.1696 37.8232C78.1514 37.8232 80.5786 35.5654 80.5786 32.5076C80.5786 29.4248 78.1514 27.1904 75.1696 27.1904ZM75.1696 35.7295C73.5346 35.7295 72.1245 34.3998 72.1245 32.5076C72.1245 30.5904 73.5346 29.2842 75.1696 29.2842C76.8031 29.2842 78.2084 30.5904 78.2084 32.5076C78.2084 34.3998 76.8031 35.7295 75.1696 35.7295ZM61.1258 28.8201V31.0795H66.5966C66.4366 32.342 66.0088 33.2701 65.3529 33.917C64.5544 34.6982 63.3107 35.5654 61.1258 35.5654C57.7591 35.5654 55.1227 32.8857 55.1227 29.5654C55.1227 26.2451 57.7591 23.5654 61.1258 23.5654C62.9463 23.5654 64.2708 24.267 65.2483 25.1764L66.8628 23.5842C65.4955 22.2967 63.6767 21.3076 61.1258 21.3076C56.509 21.3076 52.6289 25.0123 52.6289 29.5654C52.6289 34.1186 56.509 37.8232 61.1258 37.8232C63.6212 37.8232 65.4955 37.017 66.969 35.5045C68.4789 34.0154 68.9494 31.9217 68.9494 30.2311C68.9494 29.7061 68.9051 29.2232 68.8258 28.8201H61.1258ZM118.553 30.5717C118.107 29.3826 116.734 27.1904 113.936 27.1904C111.163 27.1904 108.855 29.3451 108.855 32.5076C108.855 35.4857 111.139 37.8232 114.202 37.8232C116.678 37.8232 118.107 36.3342 118.695 35.467L116.857 34.2592C116.244 35.1436 115.409 35.7295 114.202 35.7295C113.003 35.7295 112.142 35.1873 111.591 34.1186L118.801 31.1764L118.553 30.5717ZM111.201 32.342C111.139 30.292 112.816 29.242 114.017 29.242C114.958 29.242 115.756 29.7061 116.022 30.3701L111.201 32.342ZM105.341 37.4998H107.711V21.8748H105.341V37.4998ZM101.459 28.3748H101.38C100.847 27.7529 99.8318 27.1904 98.5453 27.1904C95.8455 27.1904 93.3771 29.5279 93.3771 32.5248C93.3771 35.5045 95.8455 37.8232 98.5453 37.8232C99.8318 37.8232 100.847 37.2561 101.38 36.6154H101.459V37.3779C101.459 39.4107 100.358 40.5029 98.5817 40.5029C97.1336 40.5029 96.2353 39.4717 95.8646 38.6045L93.8033 39.4529C94.3974 40.8623 95.9707 42.5967 98.5817 42.5967C101.361 42.5967 103.706 40.9842 103.706 37.0607V27.5139H101.459V28.3748ZM98.7481 35.7295C97.1146 35.7295 95.7473 34.3811 95.7473 32.5248C95.7473 30.6514 97.1146 29.2842 98.7481 29.2842C100.358 29.2842 101.627 30.6514 101.627 32.5248C101.627 34.3811 100.358 35.7295 98.7481 35.7295ZM129.649 21.8748H123.981V37.4998H126.344V31.5795H129.649C132.275 31.5795 134.849 29.7061 134.849 26.7264C134.849 23.7482 132.268 21.8748 129.649 21.8748ZM129.711 29.4061H126.344V24.0482H129.711C131.476 24.0482 132.484 25.4936 132.484 26.7264C132.484 27.9357 131.476 29.4061 129.711 29.4061ZM144.324 27.1607C142.616 27.1607 140.84 27.9045 140.109 29.5529L142.207 30.4201C142.659 29.5529 143.489 29.2717 144.367 29.2717C145.593 29.2717 146.837 29.9982 146.856 31.2811V31.4451C146.428 31.2014 145.512 30.8404 144.386 30.8404C142.126 30.8404 139.824 32.067 139.824 34.3561C139.824 36.4498 141.675 37.7982 143.755 37.7982C145.346 37.7982 146.223 37.0904 146.775 36.267H146.856V37.4748H149.139V31.4811C149.139 28.7107 147.041 27.1607 144.324 27.1607ZM144.039 35.7232C143.265 35.7232 142.188 35.3451 142.188 34.3998C142.188 33.1904 143.532 32.7264 144.695 32.7264C145.736 32.7264 146.223 32.9529 146.856 33.2514C146.67 34.6982 145.408 35.7232 144.039 35.7232ZM157.457 27.5029L154.739 34.2764H154.659L151.85 27.5029H149.3L153.521 36.9686L151.113 42.2357H153.583L160.087 27.5029H157.457ZM136.149 37.4998H138.519V21.8748H136.149V37.4998Z" fill="black"/>
<defs>
<linearGradient id="paint0_linear_862_43155" x1="28.2424" y1="39.1127" x2="7.26646" y2="17.8432" gradientUnits="userSpaceOnUse">
<stop stop-color="#00A0FF"/>
<stop offset="0.0066" stop-color="#00A1FF"/>
<stop offset="0.2601" stop-color="#00BEFF"/>
<stop offset="0.5122" stop-color="#00D2FF"/>
<stop offset="0.7604" stop-color="#00DFFF"/>
<stop offset="1" stop-color="#00E3FF"/>
</linearGradient>
<linearGradient id="paint1_linear_862_43155" x1="43.496" y1="24.9981" x2="12.8266" y2="24.9981" gradientUnits="userSpaceOnUse">
<stop stop-color="#FFE000"/>
<stop offset="0.4087" stop-color="#FFBD00"/>
<stop offset="0.7754" stop-color="#FFA500"/>
<stop offset="1" stop-color="#FF9C00"/>
</linearGradient>
<linearGradient id="paint2_linear_862_43155" x1="32.0796" y1="22.1298" x2="3.63448" y2="-6.71334" gradientUnits="userSpaceOnUse">
<stop stop-color="#FF3A44"/>
<stop offset="1" stop-color="#C31162"/>
</linearGradient>
<linearGradient id="paint3_linear_862_43155" x1="9.86089" y1="49.7798" x2="22.5629" y2="36.9001" gradientUnits="userSpaceOnUse">
<stop stop-color="#32A071"/>
<stop offset="0.0685" stop-color="#2DA771"/>
<stop offset="0.4762" stop-color="#15CF74"/>
<stop offset="0.8009" stop-color="#06E775"/>
<stop offset="1" stop-color="#00F076"/>
</linearGradient>
</defs>
</svg>
